<svg height="512" viewBox="0 0 64 64" width="512" xmlns="http://www.w3.org/2000/svg" xmlns:xlink="http://www.w3.org/1999/xlink"><linearGradient id="New_Gradient_Swatch" gradientUnits="userSpaceOnUse" x1="32" x2="32" y1="64.222" y2="-.341"><stop offset="0" stop-color="#e93e3a"/><stop offset=".35" stop-color="#ed683c"/><stop offset=".7" stop-color="#f3903f"/><stop offset="1" stop-color="#fdc70c"/></linearGradient><linearGradient id="New_Gradient_Swatch-2" x1="11" x2="11" xlink:href="#New_Gradient_Swatch" y1="64.222" y2="-.341"/><linearGradient id="New_Gradient_Swatch-3" x1="15" x2="15" xlink:href="#New_Gradient_Swatch" y1="64.222" y2="-.341"/><linearGradient id="New_Gradient_Swatch-4" x1="49" x2="49" xlink:href="#New_Gradient_Swatch" y1="64.222" y2="-.341"/><linearGradient id="New_Gradient_Swatch-5" x1="53" x2="53" xlink:href="#New_Gradient_Swatch" y1="64.222" y2="-.341"/><linearGradient id="New_Gradient_Swatch-6" x1="16" x2="16" xlink:href="#New_Gradient_Swatch" y1="64.222" y2="-.341"/><linearGradient id="New_Gradient_Swatch-7" x1="12" x2="12" xlink:href="#New_Gradient_Swatch" y1="64.222" y2="-.341"/><linearGradient id="New_Gradient_Swatch-8" x1="20" x2="20" xlink:href="#New_Gradient_Swatch" y1="64.222" y2="-.341"/><linearGradient id="New_Gradient_Swatch-9" x1="24" x2="24" xlink:href="#New_Gradient_Swatch" y1="64.222" y2="-.341"/><linearGradient id="New_Gradient_Swatch-10" x1="28" x2="28" xlink:href="#New_Gradient_Swatch" y1="64.222" y2="-.341"/><linearGradient id="New_Gradient_Swatch-12" x1="36" x2="36" xlink:href="#New_Gradient_Swatch" y1="64.222" y2="-.341"/><linearGradient id="New_Gradient_Swatch-13" x1="40" x2="40" xlink:href="#New_Gradient_Swatch" y1="64.222" y2="-.341"/><linearGradient id="New_Gradient_Swatch-14" x1="44" x2="44" xlink:href="#New_Gradient_Swatch" y1="64.222" y2="-.341"/><linearGradient id="New_Gradient_Swatch-15" x1="48" x2="48" xlink:href="#New_Gradient_Swatch" y1="64.222" y2="-.341"/><linearGradient id="New_Gradient_Swatch-16" x1="52" x2="52" xlink:href="#New_Gradient_Swatch" y1="64.222" y2="-.341"/><linearGradient id="New_Gradient_Swatch-20" x1="17" x2="17" xlink:href="#New_Gradient_Swatch" y1="64.222" y2="-.341"/><linearGradient id="New_Gradient_Swatch-21" x1="21" x2="21" xlink:href="#New_Gradient_Swatch" y1="64.222" y2="-.341"/><linearGradient id="New_Gradient_Swatch-22" x1="25" x2="25" xlink:href="#New_Gradient_Swatch" y1="64.222" y2="-.341"/><path d="m61.9 56.553-5.9-11.789v-29.764a3 3 0 0 0 -3-3h-1v-7a3 3 0 0 0 -3-3h-34a3 3 0 0 0 -3 3v7h-1a3 3 0 0 0 -3 3v29.764l-5.895 11.789a1 1 0 0 0 -.105.447v3a2 2 0 0 0 2 2h56a2 2 0 0 0 2-2v-3a1 1 0 0 0 -.1-.447zm-21.282-.553-1.718-3.447a1 1 0 0 0 -.9-.553h-12a1 1 0 0 0 -.895.553l-1.723 3.447h-18.764l5-10h44.764l5 10zm-2.236 0h-12.764l1-2h10.764zm-24.382-46h36v29a1 1 0 0 1 -1 1h-34a1 1 0 0 1 -1-1zm1-6h34a1 1 0 0 1 1 1v3h-36v-3a1 1 0 0 1 1-1zm-5 11a1 1 0 0 1 1-1h1v25a3 3 0 0 0 3 3h34a3 3 0 0 0 3-3v-25h1a1 1 0 0 1 1 1v29h-44zm-6 45v-2h56v2z" fill="url(#New_Gradient_Swatch)"/><path d="m10 52h2v2h-2z" fill="url(#New_Gradient_Swatch-2)"/><path d="m14 52h2v2h-2z" fill="url(#New_Gradient_Swatch-3)"/><path d="m48 52h2v2h-2z" fill="url(#New_Gradient_Swatch-4)"/><path d="m52 52h2v2h-2z" fill="url(#New_Gradient_Swatch-5)"/><path d="m15 48h2v2h-2z" fill="url(#New_Gradient_Swatch-6)"/><path d="m11 48h2v2h-2z" fill="url(#New_Gradient_Swatch-7)"/><path d="m19 48h2v2h-2z" fill="url(#New_Gradient_Swatch-8)"/><path d="m23 48h2v2h-2z" fill="url(#New_Gradient_Swatch-9)"/><path d="m27 48h2v2h-2z" fill="url(#New_Gradient_Swatch-10)"/><path d="m31 48h2v2h-2z" fill="url(#New_Gradient_Swatch)"/><path d="m35 48h2v2h-2z" fill="url(#New_Gradient_Swatch-12)"/><path d="m39 48h2v2h-2z" fill="url(#New_Gradient_Swatch-13)"/><path d="m43 48h2v2h-2z" fill="url(#New_Gradient_Swatch-14)"/><path d="m47 48h2v2h-2z" fill="url(#New_Gradient_Swatch-15)"/><path d="m51 48h2v2h-2z" fill="url(#New_Gradient_Swatch-16)"/><path d="m18 52h4v2h-4z" fill="url(#New_Gradient_Swatch-8)"/><path d="m42 52h4v2h-4z" fill="url(#New_Gradient_Swatch-14)"/><path d="m17 32h2v3a1 1 0 0 0 1 1h8v1a1 1 0 0 0 1 1h6a1 1 0 0 0 1-1v-1h8a1 1 0 0 0 1-1v-3h2a1 1 0 0 0 1-1v-4a1 1 0 0 0 -1-1h-2v-2a1 1 0 0 0 -1-1h-8.586l-2.414-2.414v-2.586h3a1 1 0 0 0 1-1v-4a1 1 0 0 0 -1-1h-8a1 1 0 0 0 -1 1v4a1 1 0 0 0 1 1h3v2.586l-2.414 2.414h-8.586a1 1 0 0 0 -1 1v2h-2a1 1 0 0 0 -1 1v4a1 1 0 0 0 1 1zm12-18h6v2h-6zm5 22h-4v-2h4zm12-6h-4v-2h4zm-3-4h-2a1 1 0 0 0 -1 1v4a1 1 0 0 0 1 1h2v2h-7v-1a1 1 0 0 0 -1-1h-2v-4.586l2.414-2.414h7.586zm-11-3.586 1.586 1.586-1.586 1.586-1.586-1.586zm-11 2.586h7.586l2.414 2.414v4.586h-2a1 1 0 0 0 -1 1v1h-7v-2h2a1 1 0 0 0 1-1v-4a1 1 0 0 0 -1-1h-2zm-3 3h4v2h-4z" fill="url(#New_Gradient_Swatch)"/><path d="m16 5h2v2h-2z" fill="url(#New_Gradient_Swatch-20)"/><path d="m20 5h2v2h-2z" fill="url(#New_Gradient_Swatch-21)"/><path d="m24 5h2v2h-2z" fill="url(#New_Gradient_Swatch-22)"/></svg>