<svg width="80" height="80" viewBox="0 0 80 80" fill="none" xmlns="http://www.w3.org/2000/svg">
<g clip-path="url(#clip0)">
<path d="M41.1961 28.8603C38.4545 31.6017 38.4545 36.0625 41.1961 38.8041C43.9373 41.5455 48.3983 41.5456 51.1398 38.8041C53.8811 36.0627 53.8812 31.6019 51.1398 28.8603C48.3983 26.1188 43.9375 26.1189 41.1961 28.8603ZM47.8253 35.4895C46.9114 36.4034 45.4245 36.4034 44.5106 35.4895C43.5967 34.5756 43.5967 33.0888 44.5106 32.175C45.4242 31.2614 46.9112 31.2609 47.8251 32.175C48.739 33.0886 48.739 34.5756 47.8253 35.4895Z" fill="#238995"/>
<path d="M75.9993 0.686357L71.7136 4.97198C57.2577 4.97839 51.5246 5.2737 37.8818 18.9165L28.8251 27.9732L13.4822 24.9046C12.511 24.7103 11.5224 25.1478 11.0129 25.997L1.06911 42.5698C0.59177 43.3653 0.628645 44.3675 1.16302 45.1257C1.6974 45.884 2.6288 46.2557 3.53849 46.0739L16.151 43.5514L14.1136 49.6635C13.833 50.5057 14.0521 51.4343 14.6799 52.062L14.6844 52.0665C12.2557 52.4096 9.91474 53.5125 8.05068 55.3765C3.92255 59.5046 0.883176 69.579 0.0145825 77.3973C-0.0640112 78.1049 0.183333 78.81 0.68677 79.3134C1.19068 79.8173 1.89614 80.0642 2.60286 79.9856C10.4211 79.1168 20.4955 76.0776 24.6235 71.9495C26.4411 70.1318 27.5865 67.8218 27.9386 65.3207C28.5663 65.9482 29.4943 66.1671 30.3366 65.8867L36.4488 63.8492L33.9263 76.4617C33.7443 77.3714 34.116 78.3028 34.8744 78.8371C35.6336 79.3723 36.636 79.4078 37.4304 78.931L54.0032 68.9873C54.8525 68.4778 55.2899 67.4892 55.0955 66.5179L52.0269 51.1751L61.0836 42.1184C74.7266 28.4756 75.0218 22.7425 75.0282 8.28651L79.3138 4.00089C80.2291 3.08558 80.2291 1.60167 79.3138 0.686357C78.3985 -0.229111 76.9144 -0.229111 75.9993 0.686357ZM14.1826 29.8249L24.8415 31.9567L18.4961 38.302L7.81443 40.4382L14.1826 29.8249ZM21.3088 68.6348C18.8455 71.0982 11.9776 73.6951 5.10677 74.8932C6.3049 68.0224 8.90177 61.1545 11.3652 58.6912C12.736 57.3204 14.5365 56.6351 16.3371 56.6351C18.1377 56.6351 19.9382 57.3206 21.309 58.6912C22.6369 60.0193 23.3683 61.785 23.3683 63.6631C23.3683 65.5412 22.6369 67.3068 21.3088 68.6348ZM30.2283 60.9814L19.0186 49.7717L20.6758 44.7998L35.2002 59.3242L30.2283 60.9814ZM50.175 65.8176L39.5618 72.1856L41.698 61.5039L48.0433 55.1585L50.175 65.8176ZM57.7691 38.8037C55.758 40.8149 41.2391 55.3339 39.5391 57.0339L22.9661 40.461C24.6591 38.7682 39.1958 24.2314 41.1963 22.231C43.8882 19.539 46.2041 17.4253 48.3252 15.7628C49.5941 19.4284 51.6771 22.7682 54.4544 25.5456C57.2319 28.3231 60.5718 30.406 64.2374 31.6749C62.5749 33.796 60.461 36.1118 57.7691 38.8037ZM67.0008 27.6303C63.5202 26.66 60.3491 24.8112 57.7691 22.2309C55.189 19.6509 53.3402 16.4798 52.3697 12.9992C57.6883 9.95042 62.4427 9.68448 70.3386 9.66136C70.3157 17.5573 70.0496 22.3118 67.0008 27.6303Z" fill="#238995"/>
</g>
<defs>
<clipPath id="clip0">
<rect width="80" height="80" fill="white"/>
</clipPath>
</defs>
</svg>
