<svg width="80" height="80" viewBox="0 0 80 80" fill="none" xmlns="http://www.w3.org/2000/svg">
<path d="M76.4355 7.65625H36.0034C35.3564 7.65625 34.8315 8.18115 34.8315 8.82812C34.8315 9.47571 35.3564 10 36.0034 10H76.4361C77.1087 10 77.6562 10.5475 77.6562 11.2207V46.8994C77.6562 47.5464 78.1811 48.0713 78.8281 48.0713C79.4757 48.0713 80 47.5464 80 46.8994V11.2207C80 9.25537 78.4015 7.65625 76.4355 7.65625Z" fill="#238995"/>
<path d="M78.828 50.8306C78.1804 50.8306 77.6561 51.3549 77.6561 52.0025V54.3194H2.34375V11.2207C2.34375 10.5475 2.89123 10 3.56384 10H20.8227C21.4697 10 21.9946 9.4757 21.9946 8.82812C21.9946 8.18115 21.4697 7.65625 20.8227 7.65625H3.56384C1.59851 7.65625 0 9.25537 0 11.2207V61.5423C0 63.0681 1.24145 64.3096 2.76733 64.3096H31.1669V69.9883H26.3281C25.6811 69.9883 25.1562 70.5132 25.1562 71.1602C25.1562 71.8077 25.6811 72.332 26.3281 72.332H53.6718C54.3193 72.332 54.8436 71.8077 54.8436 71.1602C54.8436 70.5132 54.3193 69.9883 53.6718 69.9883H48.8329V64.3096H77.2325C78.7584 64.3096 79.9998 63.0681 79.9998 61.5423V52.0025C79.9998 51.3549 79.4755 50.8306 78.828 50.8306ZM46.4892 69.9883H33.5107V64.3096H46.4892V69.9883ZM77.2325 61.9658H2.76733C2.53356 61.9658 2.34375 61.776 2.34375 61.5423V56.6631H77.6561V61.5423C77.6561 61.776 77.4663 61.9658 77.2325 61.9658Z" fill="#238995"/>
<path d="M25.9258 10H30.9001C31.5471 10 32.072 9.47571 32.072 8.82813C32.072 8.18115 31.5471 7.65625 30.9001 7.65625H25.9258C25.2788 7.65625 24.7539 8.18115 24.7539 8.82813C24.7539 9.47571 25.2788 10 25.9258 10Z" fill="#238995"/>
<path d="M7.24609 16.5076C6.59912 16.5076 6.07422 17.0319 6.07422 17.6794V48.7799C6.07422 49.4269 6.59912 49.9518 7.24609 49.9518H16.3721C17.019 49.9518 17.5439 49.4269 17.5439 48.7799V17.6794C17.5439 17.0319 17.019 16.5076 16.3721 16.5076H7.24609ZM15.2002 18.8513V20.2661H8.41797V18.8513H15.2002ZM8.41797 47.608V22.6099H15.2002V47.608H8.41797Z" fill="#238995"/>
<path d="M64.6379 29.2261H73.7639C74.4115 29.2261 74.9358 28.7018 74.9358 28.0542V17.6794C74.9358 17.0319 74.4115 16.5076 73.7639 16.5076H64.6379C63.991 16.5076 63.4661 17.0319 63.4661 17.6794V28.0542C63.4661 28.7018 63.991 29.2261 64.6379 29.2261ZM65.8098 26.8823V22.6093H72.592V26.8823H65.8098ZM72.592 18.8513V20.2661H65.8098V18.8513H72.592Z" fill="#238995"/>
<path d="M63.4661 44.6674C63.4661 45.3149 63.991 45.8392 64.6379 45.8392H73.7639C74.4115 45.8392 74.9358 45.3149 74.9358 44.6674V34.2926C74.9358 33.645 74.4115 33.1207 73.7639 33.1207H64.6379C63.991 33.1207 63.4661 33.645 63.4661 34.2926V44.6674ZM65.8098 43.4955V39.2224H72.592V43.4955H65.8098ZM72.592 35.4645V36.8787H65.8098V35.4645H72.592Z" fill="#238995"/>
<path d="M22.9082 39.004C22.9082 40.8882 24.442 42.4214 26.3262 42.4214C27.1843 42.4214 27.9686 42.1034 28.5692 41.5791L36.6234 46.0414C36.5966 46.2141 36.5819 46.3917 36.5819 46.5718C36.5819 48.4565 38.1151 49.9897 39.9999 49.9897C41.884 49.9897 43.4172 48.4565 43.4172 46.5718C43.4172 46.3917 43.4032 46.2141 43.3764 46.0414L51.4299 41.5791C52.0305 42.1028 52.8154 42.4214 53.673 42.4214C55.5578 42.4214 57.091 40.8882 57.091 39.0034C57.091 37.5306 56.1541 36.2721 54.8449 35.793V28.5341C56.1541 28.0543 57.091 26.7964 57.091 25.323C57.091 23.4382 55.5578 21.905 53.673 21.905C52.8173 21.905 52.0348 22.2218 51.4348 22.743L43.3757 18.2783C43.4032 18.1056 43.4172 17.9286 43.4172 17.7479C43.4172 15.8632 41.884 14.33 39.9993 14.33C38.1151 14.33 36.5819 15.8632 36.5819 17.7479C36.5819 17.928 36.596 18.1056 36.6234 18.2783L28.5643 22.743C27.9644 22.2218 27.1819 21.905 26.3262 21.905C24.4414 21.905 22.9082 23.4382 22.9082 25.323C22.9082 26.7958 23.8451 28.0543 25.1543 28.5334V35.793C23.8451 36.2721 22.9082 37.5306 22.9082 39.004ZM39.9999 21.1659C40.8556 21.1659 41.6381 20.8491 42.238 20.3273L50.2971 24.7926C50.2703 24.9653 50.2556 25.1423 50.2556 25.323C50.2556 25.5037 50.2703 25.6813 50.2971 25.854L42.238 30.3187C41.6381 29.7975 40.8556 29.4807 39.9999 29.4807C39.1442 29.4807 38.3617 29.7975 37.7617 30.3187L29.7026 25.854C29.7301 25.6813 29.7441 25.5037 29.7441 25.323C29.7441 25.1423 29.7295 24.9653 29.7026 24.7926L37.7617 20.3279C38.3617 20.8491 39.1442 21.1659 39.9999 21.1659ZM50.2556 39.004C50.2556 39.1822 50.2697 39.3574 50.2959 39.5283L42.238 43.9924C41.9268 43.7214 41.5667 43.5054 41.1718 43.3613V36.1091C42.481 35.63 43.4179 34.3715 43.4179 32.8981C43.4179 32.7174 43.4032 32.5404 43.3764 32.3677L51.4354 27.9029C51.7467 28.1733 52.1068 28.3894 52.5017 28.5341V35.793C51.1925 36.2721 50.2556 37.5306 50.2556 39.004ZM41.0741 32.8981C41.0741 33.4907 40.5919 33.9723 39.9999 33.9723C39.4078 33.9723 38.9257 33.4907 38.9257 32.8981C38.9257 32.306 39.4078 31.8245 39.9999 31.8245C40.5919 31.8245 41.0741 32.306 41.0741 32.8981ZM28.5643 27.9029L36.6234 32.3677C36.5966 32.541 36.5819 32.718 36.5819 32.8987C36.5819 34.3715 37.5188 35.63 38.828 36.1091V43.3613C38.4331 43.506 38.073 43.722 37.7617 43.9924L29.7039 39.5283C29.7301 39.3574 29.7441 39.1822 29.7441 39.004C29.7441 37.5306 28.8073 36.2721 27.498 35.793V28.5341C27.8929 28.3894 28.2531 28.1733 28.5643 27.9029ZM26.3262 40.0776C25.7341 40.0776 25.252 39.5961 25.252 39.004C25.252 38.4114 25.7341 37.9298 26.3262 37.9298C26.9188 37.9298 27.4004 38.4114 27.4004 39.004C27.4004 39.5961 26.9188 40.0776 26.3262 40.0776ZM39.9999 47.646C39.4078 47.646 38.9257 47.1638 38.9257 46.5718C38.9257 45.9797 39.4078 45.4975 39.9999 45.4975C40.5919 45.4975 41.0741 45.9797 41.0741 46.5718C41.0741 47.1638 40.5919 47.646 39.9999 47.646ZM53.6736 40.0776C53.0816 40.0776 52.5994 39.5961 52.5994 39.004C52.5994 38.4114 53.0816 37.9298 53.6736 37.9298C54.2656 37.9298 54.7478 38.4114 54.7478 39.004C54.7478 39.5961 54.2656 40.0776 53.6736 40.0776ZM53.6736 24.2488C54.2656 24.2488 54.7478 24.731 54.7478 25.323C54.7478 25.915 54.2656 26.3972 53.6736 26.3972C53.0816 26.3972 52.5994 25.915 52.5994 25.323C52.5994 24.731 53.0816 24.2488 53.6736 24.2488ZM39.9999 16.6737C40.5919 16.6737 41.0741 17.1559 41.0741 17.7479C41.0741 18.34 40.5919 18.8221 39.9999 18.8221C39.4078 18.8221 38.9257 18.34 38.9257 17.7479C38.9257 17.1559 39.4078 16.6737 39.9999 16.6737ZM26.3262 24.2488C26.9188 24.2488 27.4004 24.731 27.4004 25.323C27.4004 25.915 26.9188 26.3972 26.3262 26.3972C25.7341 26.3972 25.252 25.915 25.252 25.323C25.252 24.731 25.7341 24.2488 26.3262 24.2488Z" fill="#238995"/>
</svg>
