<svg width="30" height="30" viewBox="0 0 30 30" fill="none" xmlns="http://www.w3.org/2000/svg">
<path d="M28.7882 13.7882H1.21184C0.542578 13.7882 0 14.3307 0 15C0 15.6693 0.542578 16.2118 1.21184 16.2118H28.7882C29.4575 16.2118 30 15.6693 30 15C30 14.3308 29.4575 13.7882 28.7882 13.7882Z" fill="#238995"/>
<path d="M28.7882 4.59607H1.21184C0.542578 4.59607 0 5.13865 0 5.8079C0 6.47716 0.542578 7.01974 1.21184 7.01974H28.7882C29.4575 7.01974 30 6.47716 30 5.8079C30 5.13865 29.4575 4.59607 28.7882 4.59607Z" fill="#238995"/>
<path d="M28.7882 22.9803H1.21184C0.542578 22.9803 0 23.5228 0 24.1921C0 24.8614 0.542578 25.404 1.21184 25.404H28.7882C29.4575 25.404 30 24.8614 30 24.1921C30 23.5228 29.4575 22.9803 28.7882 22.9803Z" fill="#238995"/>
</svg>
