<svg width="30" height="30" viewBox="0 0 30 30" fill="none" xmlns="http://www.w3.org/2000/svg">
<g clip-path="url(#clip0)">
<path d="M15.0006 0C6.71664 0 0.000976562 6.71587 0.000976562 14.9998C0.000976562 23.2836 6.71664 30 15.0006 30C23.2846 30 30.0008 23.2836 30.0008 14.9998C30.0008 6.71567 23.2846 0 15.0006 0ZM15.0463 22.0765V22.0763H14.9547H8.54746C8.54746 17.3907 12.6627 17.3918 13.5759 16.1666L13.6804 15.6079C12.3974 14.9576 11.4917 13.39 11.4917 11.5566C11.4917 9.14119 13.0629 7.18277 15.0006 7.18277C16.9383 7.18277 18.5096 9.14119 18.5096 11.5566C18.5096 13.3744 17.6199 14.9322 16.354 15.5928L16.473 16.2277C17.4749 17.3935 21.4533 17.4695 21.4533 22.0765H15.0463V22.0765Z" fill="#238995"/>
</g>
<defs>
<clipPath id="clip0">
<rect width="30" height="30" fill="white"/>
</clipPath>
</defs>
</svg>
