<svg width="200" height="200" viewBox="0 0 200 200" fill="none" xmlns="http://www.w3.org/2000/svg">
<path d="M100 200C152.855 200 195.703 157.152 195.703 104.297C195.703 51.4415 152.855 8.59375 100 8.59375C47.1446 8.59375 4.29688 51.4415 4.29688 104.297C4.29688 157.152 47.1446 200 100 200Z" fill="#0E1F48"/>
<path d="M112.474 157.253C112.474 156.391 113.175 155.69 114.037 155.69H115.743C115.901 155.69 116.044 155.595 116.104 155.449C116.164 155.303 116.131 155.135 116.019 155.023L97.4598 136.464C96.4316 135.436 95.8652 134.062 95.8652 132.597C95.8652 131.132 96.4316 129.759 97.4598 128.73L98.2352 127.955C99.2633 126.927 100.637 126.361 102.102 126.361C103.568 126.361 104.941 126.927 105.969 127.955L110.834 132.82C110.908 132.895 111.008 132.934 111.11 132.934C111.16 132.934 111.211 132.925 111.259 132.905C111.405 132.845 111.5 132.702 111.5 132.544V92.8684C111.5 89.8527 113.954 87.3996 116.969 87.3996H117.132C118.78 87.3996 120.257 88.1359 121.26 89.293V3.90625C121.26 1.75781 119.502 0 117.354 0H34.6488C32.5004 0 30.7426 1.75781 30.7426 3.90625V156.037C30.7426 158.185 32.5004 159.943 34.6488 159.943H112.474V157.253H112.474Z" fill="#2E4C89"/>
<path d="M95.8652 132.597C95.8652 131.132 96.4316 129.758 97.4598 128.73L98.2352 127.955C99.2633 126.927 100.637 126.36 102.102 126.36C103.568 126.36 104.941 126.927 105.969 127.955L110.834 132.82C110.908 132.894 111.008 132.934 111.11 132.934C111.16 132.934 111.211 132.925 111.259 132.905C111.405 132.844 111.5 132.701 111.5 132.544V92.8682C111.5 90.2659 113.329 88.0862 115.768 87.537V16.8558C115.768 15.7222 114.84 14.7944 113.707 14.7944H38.2965C37.1629 14.7944 36.2355 15.7222 36.2355 16.8558V132.834C36.2355 133.968 37.1629 134.895 38.2965 134.895H96.3715C96.0438 134.185 95.8652 133.407 95.8652 132.597Z" fill="#C3DDF4"/>
<path d="M43.9863 132.835V16.8558C43.9863 15.7222 44.9137 14.7944 46.0473 14.7944H38.2965C37.1629 14.7944 36.2355 15.7222 36.2355 16.8558V132.834C36.2355 133.968 37.1629 134.895 38.2965 134.895H46.0473C44.9137 134.895 43.9863 133.968 43.9863 132.835Z" fill="#AEC1ED"/>
<path d="M76 153.352C80.0043 153.352 83.2504 150.106 83.2504 146.102C83.2504 142.097 80.0043 138.851 76 138.851C71.9957 138.851 68.7496 142.097 68.7496 146.102C68.7496 150.106 71.9957 153.352 76 153.352Z" fill="#1A2B63"/>
<path d="M91.7473 10.29H69.3379C67.7199 10.29 66.4082 8.97871 66.4082 7.36035C66.4082 5.74199 67.7199 4.43066 69.3379 4.43066H91.7473C93.3652 4.43066 94.677 5.74199 94.677 7.36035C94.677 8.97871 93.3652 10.29 91.7473 10.29Z" fill="#1A2B63"/>
<path d="M60.2539 10.6556C62.0739 10.6556 63.5492 9.1802 63.5492 7.36025C63.5492 5.5403 62.0739 4.06494 60.2539 4.06494C58.434 4.06494 56.9586 5.5403 56.9586 7.36025C56.9586 9.1802 58.434 10.6556 60.2539 10.6556Z" fill="#1A2B63"/>
<path d="M113.707 14.7944H38.2965C37.1629 14.7944 36.2355 15.7222 36.2355 16.8558V26.0042H115.768V16.8558C115.768 15.7222 114.84 14.7944 113.707 14.7944Z" fill="#FF9518"/>
<path d="M46.0473 14.7944H38.2965C37.1629 14.7944 36.2355 15.7222 36.2355 16.8558V26.0042H43.9863V16.8558C43.9863 15.7222 44.9137 14.7944 46.0473 14.7944Z" fill="#EF8318"/>
<path d="M109.674 87.182C109.674 89.3304 107.916 91.0882 105.768 91.0882H46.2363C44.0879 91.0882 42.3301 89.3304 42.3301 87.182V68.2C42.3301 66.0515 44.0879 64.2937 46.2363 64.2937H105.768C107.916 64.2937 109.674 66.0515 109.674 68.2V87.182Z" fill="#445EA0"/>
<path d="M95.8652 132.597C95.8652 131.132 96.4316 129.759 97.4598 128.731L98.2352 127.955C99.2633 126.927 100.637 126.361 102.102 126.361C103.568 126.361 104.941 126.927 105.969 127.955L110.834 132.82C110.908 132.895 111.008 132.934 111.11 132.934C111.16 132.934 111.211 132.925 111.259 132.905C111.405 132.845 111.5 132.702 111.5 132.544V97.1099H36.2355V132.835C36.2355 133.968 37.1629 134.895 38.2965 134.895H96.3715C96.0438 134.185 95.8652 133.407 95.8652 132.597Z" fill="#EEF6FF"/>
<path d="M43.9863 132.835V97.1099H36.2355V132.835C36.2355 133.968 37.1629 134.895 38.2965 134.895H46.0473C44.9137 134.895 43.9863 133.968 43.9863 132.835Z" fill="#D9EAFC"/>
<path d="M82.2047 108.128H51.0469C49.4289 108.128 48.1172 106.817 48.1172 105.198C48.1172 103.58 49.4289 102.269 51.0469 102.269H82.2051C83.823 102.269 85.1348 103.58 85.1348 105.198C85.1344 106.816 83.8227 108.128 82.2047 108.128Z" fill="#5DC1D8"/>
<path d="M82.2047 117.841H51.0469C49.4289 117.841 48.1172 116.529 48.1172 114.911C48.1172 113.293 49.4289 111.982 51.0469 111.982H82.2051C83.823 111.982 85.1348 113.293 85.1348 114.911C85.1344 116.529 83.8227 117.841 82.2047 117.841Z" fill="#5DC1D8"/>
<path d="M66.6879 127.553H51.0469C49.4289 127.553 48.1172 126.242 48.1172 124.624C48.1172 123.005 49.4289 121.694 51.0469 121.694H66.6879C68.3059 121.694 69.6176 123.005 69.6176 124.624C69.6176 126.242 68.3059 127.553 66.6879 127.553Z" fill="#5DC1D8"/>
<path d="M97.2094 124.827C96.6109 124.827 96.007 124.644 95.4863 124.265C94.1785 123.313 93.891 121.48 94.8438 120.172L98.6777 114.911L94.8445 109.65C93.8918 108.343 94.1793 106.51 95.4871 105.557C96.7953 104.604 98.6274 104.892 99.5805 106.2L104.671 113.186C105.42 114.214 105.42 115.608 104.671 116.636L99.5797 123.623C99.0063 124.409 98.1141 124.827 97.2094 124.827Z" fill="#FF9518"/>
<path d="M116.044 171.688V198.654C130.356 196.237 143.588 190.648 154.991 182.628V171.688H116.044Z" fill="#EF8318"/>
<path d="M116.044 171.688V198.654C118.666 198.211 121.25 197.66 123.795 197.009V171.688H116.044Z" fill="#DB722C"/>
<path d="M155.667 155.69V115.093C155.667 111.87 153.03 109.233 149.807 109.233H149.645C147.254 109.233 145.189 110.686 144.28 112.75C143.372 110.686 141.307 109.233 138.916 109.233H138.753C136.362 109.233 134.297 110.686 133.389 112.75C132.48 110.686 130.415 109.233 128.024 109.233H127.862C125.837 109.233 124.045 110.274 122.992 111.847V92.8684C122.992 89.6458 120.355 87.009 117.132 87.009H116.97C113.747 87.009 111.111 89.6458 111.111 92.8684V132.543L106.246 127.679C103.967 125.4 100.238 125.4 97.9594 127.679L97.1844 128.454C94.9055 130.732 94.9055 134.462 97.1844 136.74L116.134 155.69H155.667Z" fill="#FFE2B8"/>
<path d="M123.885 155.69L104.935 136.74C102.656 134.462 102.656 130.732 104.935 128.454L105.71 127.679C105.796 127.593 105.888 127.516 105.977 127.437C103.683 125.409 100.151 125.486 97.9586 127.679L97.1836 128.454C94.9047 130.732 94.9047 134.462 97.1836 136.74L116.134 155.69H123.885Z" fill="#FFC987"/>
<path d="M158.952 170.126C158.952 171.2 158.073 172.079 156.998 172.079H114.037C112.962 172.079 112.084 171.2 112.084 170.126V157.253C112.084 156.179 112.962 155.3 114.037 155.3H156.998C158.073 155.3 158.952 156.179 158.952 157.253V170.126Z" fill="#FF9518"/>
<path d="M119.834 170.126V157.253C119.834 156.179 120.713 155.3 121.787 155.3H114.036C112.962 155.3 112.083 156.179 112.083 157.253V170.126C112.083 171.2 112.962 172.079 114.036 172.079H121.787C120.713 172.079 119.834 171.2 119.834 170.126Z" fill="#EF8318"/>
<path d="M150.371 167.322C152.376 167.322 154.002 165.697 154.002 163.691C154.002 161.686 152.376 160.061 150.371 160.061C148.366 160.061 146.741 161.686 146.741 163.691C146.741 165.697 148.366 167.322 150.371 167.322Z" fill="#DB722C"/>
<path d="M186.995 93.7669C186.995 94.8411 186.116 95.72 185.041 95.72H128.875C127.801 95.72 126.922 94.8411 126.922 93.7669V53.2446C126.922 52.1704 127.801 51.2915 128.875 51.2915H185.041C186.116 51.2915 186.995 52.1704 186.995 53.2446V93.7669Z" fill="#FE3745"/>
<path d="M147.148 64.5664C147.148 62.4179 148.67 61.539 150.53 62.6133L166.013 71.5519C167.873 72.6261 167.873 74.384 166.013 75.4582L150.53 84.3972C148.67 85.4715 147.148 84.5926 147.148 82.4441V64.5664Z" fill="white"/>
<path d="M182.294 30.5466C177.448 30.5466 173.506 26.6044 173.506 21.7591C173.506 20.9548 173.617 20.1763 173.82 19.436H128.875C127.801 19.436 126.922 20.3149 126.922 21.3892V44.5591C126.922 45.6333 127.801 46.5122 128.875 46.5122H185.041C186.116 46.5122 186.995 45.6333 186.995 44.5591V29.1778C185.634 30.0431 184.022 30.5466 182.294 30.5466Z" fill="#FFAF10"/>
<path d="M134.673 93.7669V53.2446C134.673 52.1704 135.552 51.2915 136.626 51.2915H128.875C127.801 51.2915 126.922 52.1704 126.922 53.2446V93.7669C126.922 94.8411 127.801 95.72 128.875 95.72H136.626C135.552 95.72 134.673 94.8411 134.673 93.7669Z" fill="#B7092B"/>
<path d="M134.673 44.5591V21.3892C134.673 20.3149 135.552 19.436 136.626 19.436H128.875C127.801 19.436 126.922 20.3149 126.922 21.3892V44.5591C126.922 45.6333 127.801 46.5122 128.875 46.5122H136.626C135.552 46.5122 134.673 45.6333 134.673 44.5591Z" fill="#EF9614"/>
<path d="M182.293 30.9371C187.362 30.9371 191.471 26.8279 191.471 21.7589C191.471 16.69 187.362 12.5808 182.293 12.5808C177.224 12.5808 173.115 16.69 173.115 21.7589C173.115 26.8279 177.224 30.9371 182.293 30.9371Z" fill="#B7092B"/>
<path d="M182.572 26.7711C181.493 26.7711 180.619 25.8969 180.619 24.818V20.5703C179.814 20.3289 179.228 19.5824 179.228 18.6992C179.228 17.6203 180.102 16.7461 181.181 16.7461H182.572C183.651 16.7461 184.525 17.6203 184.525 18.6992V24.818C184.525 25.8969 183.651 26.7711 182.572 26.7711Z" fill="#EEF6FF"/>
<path d="M164.343 31.3372H136.376C134.757 31.3372 133.446 30.0254 133.446 28.4075C133.446 26.7891 134.757 25.4778 136.376 25.4778H164.343C165.961 25.4778 167.273 26.7891 167.273 28.4075C167.273 30.0254 165.961 31.3372 164.343 31.3372Z" fill="#DB722C"/>
<path d="M172.798 40.3962H136.376C134.757 40.3962 133.446 39.0849 133.446 37.4666C133.446 35.8482 134.757 34.5369 136.376 34.5369H172.798C174.416 34.5369 175.728 35.8482 175.728 37.4666C175.728 39.0849 174.416 40.3962 172.798 40.3962Z" fill="#DB722C"/>
<path d="M76 59.8945C84.0534 59.8945 90.582 53.3659 90.582 45.3125C90.582 37.2591 84.0534 30.7305 76 30.7305C67.9466 30.7305 61.418 37.2591 61.418 45.3125C61.418 53.3659 67.9466 59.8945 76 59.8945Z" fill="#EF8318"/>
<path d="M76 57.0312C82.4721 57.0312 87.7188 51.7846 87.7188 45.3125C87.7188 38.8404 82.4721 33.5938 76 33.5938C69.5279 33.5938 64.2812 38.8404 64.2812 45.3125C64.2812 51.7846 69.5279 57.0312 76 57.0312Z" fill="#FF9518"/>
<path d="M80.593 48.641H77.9902V48.0144C80.209 47.2023 81.7957 45.0777 81.7957 42.5781C81.7957 39.3785 79.2012 36.7839 76.0015 36.7839C72.8015 36.7839 70.2074 39.3785 70.2074 42.5781C70.2074 45.0781 71.7941 47.2023 74.0129 48.0144V48.641H71.4101C70.3707 48.641 69.5207 49.4917 69.5207 50.5312V55.0753C71.3773 56.3101 73.6047 57.0312 76.0015 57.0312C78.3984 57.0312 80.6262 56.3101 82.4824 55.0753V50.5304C82.4828 49.4914 81.6324 48.641 80.593 48.641Z" fill="white"/>
<path d="M62.8906 83.355C62.8906 84.4292 62.0117 85.3081 60.9375 85.3081H49.6094C48.5352 85.3081 47.6562 84.4292 47.6562 83.355V72.0269C47.6562 70.9526 48.5352 70.0737 49.6094 70.0737H60.9375C62.0117 70.0737 62.8906 70.9526 62.8906 72.0269V83.355Z" fill="#FF9518"/>
<path d="M52.5426 83.355V72.0269C52.5426 70.9526 53.4215 70.0737 54.4957 70.0737H49.6094C48.5352 70.0737 47.6562 70.9526 47.6562 72.0269V83.355C47.6562 84.4292 48.5352 85.3081 49.6094 85.3081H54.4957C53.4215 85.3081 52.5426 84.4292 52.5426 83.355Z" fill="#EF8318"/>
<path d="M88.932 77.6909C88.932 76.5882 89.3082 75.5741 89.934 74.7612H69.0102C67.3922 74.7612 66.0805 76.0726 66.0805 77.6909C66.0805 79.3093 67.3922 80.6206 69.0102 80.6206H89.934C89.3086 79.8077 88.932 78.7937 88.932 77.6909Z" fill="#1A2B63"/>
<path d="M102.344 74.7612H97.5656C98.1914 75.5741 98.5676 76.5882 98.5676 77.6909C98.5676 78.7937 98.1914 79.8077 97.5656 80.6206H102.344C103.962 80.6206 105.273 79.3093 105.273 77.6909C105.273 76.0726 103.962 74.7612 102.344 74.7612Z" fill="#1A2B63"/>
<path d="M93.75 82.8996C96.6264 82.8996 98.9582 80.5678 98.9582 77.6914C98.9582 74.8149 96.6264 72.4832 93.75 72.4832C90.8736 72.4832 88.5418 74.8149 88.5418 77.6914C88.5418 80.5678 90.8736 82.8996 93.75 82.8996Z" fill="#FF9518"/>
</svg>
