<svg width="30" height="30" viewBox="0 0 30 30" fill="none" xmlns="http://www.w3.org/2000/svg">
<g clip-path="url(#clip0)">
<path d="M29.3182 4.09091H0.681818C0.304773 4.09091 0 4.39568 0 4.77273V25.2273C0 25.6043 0.304773 25.9091 0.681818 25.9091H29.3182C29.6945 25.9091 30 25.6043 30 25.2273V4.77273C30 4.39568 29.6945 4.09091 29.3182 4.09091ZM28.6364 22.8961L20.19 14.4505L19.2259 15.4145L28.3568 24.5455H1.64318L10.7741 15.4145L9.81 14.4505L1.36364 22.8961V5.45455H28.6364V22.8961Z" fill="#238995"/>
<path d="M27.258 5.45456L14.9996 17.713L2.74124 5.45456H1.36328V6.00479L14.5176 19.1591C14.7842 19.4257 15.2151 19.4257 15.4817 19.1591L28.636 6.00479V5.45456H27.258Z" fill="#238995"/>
</g>
<defs>
<clipPath id="clip0">
<rect width="30" height="30" fill="white"/>
</clipPath>
</defs>
</svg>
