<svg width="80" height="80" viewBox="0 0 80 80" fill="none" xmlns="http://www.w3.org/2000/svg">
<g clip-path="url(#clip0)">
<path d="M9.21266 29.3041C9.44093 29.5324 9.74062 29.6471 10.0403 29.6471C10.34 29.6471 10.6397 29.533 10.8686 29.3041C11.3257 28.8469 11.3257 28.1053 10.8686 27.6482L8.02552 24.8052L10.8686 21.9627C11.3257 21.505 11.3257 20.764 10.8686 20.3069C10.4114 19.8497 9.66982 19.8497 9.21266 20.3069L5.54199 23.9775C5.32227 24.1973 5.19897 24.4951 5.19897 24.8052C5.19897 25.1158 5.32227 25.4137 5.54199 25.6334L9.21266 29.3041Z" fill="#238995"/>
<path d="M20.8313 24.8052L17.9883 27.6482C17.5311 28.1054 17.5311 28.8469 17.9889 29.3041C18.2172 29.5324 18.5169 29.6471 18.8165 29.6471C19.1162 29.6471 19.4159 29.5324 19.6442 29.3041L23.3155 25.6328C23.7726 25.1757 23.7726 24.4341 23.3155 23.9775L19.6442 20.3062C19.187 19.8491 18.4461 19.8491 17.9889 20.3062C17.5311 20.764 17.5311 21.505 17.9889 21.9621L20.8313 24.8052Z" fill="#238995"/>
<path d="M12.6831 29.5659C12.8235 29.6209 12.9687 29.6471 13.111 29.6471C13.5785 29.6471 14.0198 29.3651 14.2011 28.9043L17.085 21.5624C17.3218 20.9606 17.0252 20.2812 16.4234 20.0444C15.8222 19.8082 15.1422 20.1042 14.906 20.706L12.0215 28.048C11.7853 28.6498 12.0813 29.3297 12.6831 29.5659Z" fill="#238995"/>
<path d="M7.03248 36.5161H14.9201C15.5664 36.5161 16.0907 35.9918 16.0907 35.3449C16.0907 34.6985 15.5664 34.1742 14.9201 34.1742H7.03248C6.3855 34.1742 5.86182 34.6985 5.86182 35.3449C5.86182 35.9918 6.3855 36.5161 7.03248 36.5161Z" fill="#238995"/>
<path d="M33.0867 34.1742H19.2195C18.5731 34.1742 18.0488 34.6985 18.0488 35.3449C18.0488 35.9918 18.5731 36.5161 19.2195 36.5161H33.0867C33.7337 36.5161 34.258 35.9918 34.258 35.3449C34.258 34.6985 33.7337 34.1742 33.0867 34.1742Z" fill="#238995"/>
<path d="M7.03247 41.4545H10.3925C11.0388 41.4545 11.5631 40.9302 11.5631 40.2832C11.5631 39.6368 11.0388 39.1125 10.3925 39.1125H7.03247C6.3855 39.1125 5.86182 39.6368 5.86182 40.2832C5.86182 40.9302 6.3855 41.4545 7.03247 41.4545Z" fill="#238995"/>
<path d="M28.8032 39.1125C28.1563 39.1125 27.6326 39.6368 27.6326 40.2832C27.6326 40.9302 28.1563 41.4545 28.8032 41.4545H30.8491C31.4961 41.4545 32.0204 40.9302 32.0204 40.2832C32.0204 39.6368 31.4961 39.1125 30.8491 39.1125H28.8032Z" fill="#238995"/>
<path d="M25.7215 40.2832C25.7215 39.6368 25.1972 39.1125 24.5508 39.1125H14.5007C13.8538 39.1125 13.3301 39.6368 13.3301 40.2832C13.3301 40.9302 13.8538 41.4545 14.5007 41.4545H24.5508C25.1972 41.4545 25.7215 40.9302 25.7215 40.2832Z" fill="#238995"/>
<path d="M33.3912 40.2832C33.3912 40.9302 33.9155 41.4545 34.5619 41.4545H38.3943C39.0413 41.4545 39.5656 40.9302 39.5656 40.2832C39.5656 39.6368 39.0413 39.1125 38.3943 39.1125H34.5619C33.9155 39.1125 33.3912 39.6368 33.3912 40.2832Z" fill="#238995"/>
<path d="M27.0149 25.7446H31.0573C31.7042 25.7446 32.2285 25.2203 32.2285 24.5734C32.2285 23.927 31.7042 23.4027 31.0573 23.4027H27.0149C26.3679 23.4027 25.8436 23.927 25.8436 24.5734C25.8436 25.2203 26.3679 25.7446 27.0149 25.7446Z" fill="#238995"/>
<path d="M35.5848 25.7446H60.2499C60.8968 25.7446 61.4205 25.2203 61.4205 24.5734C61.4205 23.927 60.8968 23.4027 60.2499 23.4027H35.5848C34.9379 23.4027 34.4136 23.927 34.4136 24.5734C34.4136 25.2203 34.9379 25.7446 35.5848 25.7446V25.7446Z" fill="#238995"/>
<path d="M56.5036 28.554H46.5121C45.8657 28.554 45.3414 29.0782 45.3414 29.7252C45.3414 30.3716 45.8657 30.8959 46.5121 30.8959H56.5036C57.1499 30.8959 57.6742 30.3716 57.6742 29.7252C57.6742 29.0782 57.1499 28.554 56.5036 28.554Z" fill="#238995"/>
<path d="M42.7656 28.554H39.3312C38.6842 28.554 38.1605 29.0782 38.1605 29.7252C38.1605 30.3716 38.6842 30.8959 39.3312 30.8959H42.7656C43.4126 30.8959 43.9363 30.3716 43.9363 29.7252C43.9363 29.0782 43.4126 28.554 42.7656 28.554Z" fill="#238995"/>
<path d="M27.0149 30.8959H35.4286C36.075 30.8959 36.5993 30.3716 36.5993 29.7252C36.5993 29.0782 36.075 28.554 35.4286 28.554H27.0149C26.3679 28.554 25.8436 29.0782 25.8436 29.7252C25.8436 30.3716 26.3679 30.8959 27.0149 30.8959Z" fill="#238995"/>
<path d="M24.5656 44.0094H16.6786C16.0316 44.0094 15.5073 44.5337 15.5073 45.1801C15.5073 45.8264 16.0316 46.3507 16.6786 46.3507H24.5656C25.212 46.3507 25.7362 45.8264 25.7362 45.1801C25.7362 44.5337 25.212 44.0094 24.5656 44.0094Z" fill="#238995"/>
<path d="M13.0921 44.0094H7.03247C6.3855 44.0094 5.86182 44.5337 5.86182 45.1801C5.86182 45.8264 6.3855 46.3507 7.03247 46.3507H13.0921C13.739 46.3507 14.2627 45.8264 14.2627 45.1801C14.2627 44.5337 13.739 44.0094 13.0921 44.0094Z" fill="#238995"/>
<path d="M38.8631 44.0094H28.5597C27.9127 44.0094 27.389 44.5337 27.389 45.1801C27.389 45.8264 27.9127 46.3507 28.5597 46.3507H38.8631C39.5094 46.3507 40.0337 45.8264 40.0337 45.1801C40.0337 44.5337 39.5094 44.0094 38.8631 44.0094V44.0094Z" fill="#238995"/>
<path d="M52.7968 37.995H47.1626C46.5162 37.995 45.9919 38.5193 45.9919 39.1656C45.9919 39.8126 46.5162 40.3369 47.1626 40.3369H52.7968C53.4437 40.3369 53.9674 39.8126 53.9674 39.1656C53.9674 38.5193 53.4437 37.995 52.7968 37.995V37.995Z" fill="#238995"/>
<path d="M62.5735 40.3369H70.527C71.174 40.3369 71.6983 39.8126 71.6983 39.1656C71.6983 38.5193 71.174 37.995 70.527 37.995H62.5735C61.9265 37.995 61.4028 38.5193 61.4028 39.1656C61.4028 39.8126 61.9271 40.3369 62.5735 40.3369Z" fill="#238995"/>
<path d="M58.5965 37.995H56.7739C56.127 37.995 55.6027 38.5193 55.6027 39.1656C55.6027 39.8126 56.127 40.3369 56.7739 40.3369H58.5965C59.2434 40.3369 59.7671 39.8126 59.7671 39.1656C59.7671 38.5193 59.2434 37.995 58.5965 37.995Z" fill="#238995"/>
<path d="M47.1626 53.0957H52.7968C53.4437 53.0957 53.9674 52.572 53.9674 51.9251C53.9674 51.2787 53.4437 50.7544 52.7968 50.7544H47.1626C46.5162 50.7544 45.9919 51.2787 45.9919 51.9251C45.9919 52.572 46.5162 53.0957 47.1626 53.0957V53.0957Z" fill="#238995"/>
<path d="M62.5735 53.0957H70.527C71.174 53.0957 71.6983 52.572 71.6983 51.9251C71.6983 51.2787 71.174 50.7544 70.527 50.7544H62.5735C61.9265 50.7544 61.4028 51.2787 61.4028 51.9251C61.4028 52.572 61.9271 53.0957 62.5735 53.0957Z" fill="#238995"/>
<path d="M56.7739 53.0957H58.5965C59.2434 53.0957 59.7677 52.572 59.7677 51.9251C59.7677 51.2787 59.2434 50.7544 58.5965 50.7544H56.7739C56.127 50.7544 55.6033 51.2787 55.6033 51.9251C55.6033 52.572 56.127 53.0957 56.7739 53.0957Z" fill="#238995"/>
<path d="M52.7968 63.5139H47.1626C46.5162 63.5139 45.9919 64.0382 45.9919 64.6846C45.9919 65.3309 46.5162 65.8552 47.1626 65.8552H52.7968C53.4437 65.8552 53.9674 65.3309 53.9674 64.6846C53.9674 64.0382 53.4437 63.5139 52.7968 63.5139V63.5139Z" fill="#238995"/>
<path d="M70.527 63.5139H62.5735C61.9265 63.5139 61.4028 64.0382 61.4028 64.6846C61.4028 65.3309 61.9265 65.8552 62.5735 65.8552H70.527C71.174 65.8552 71.6983 65.3309 71.6983 64.6846C71.6983 64.0382 71.174 63.5139 70.527 63.5139V63.5139Z" fill="#238995"/>
<path d="M58.5965 63.5139H56.7739C56.127 63.5139 55.6027 64.0382 55.6027 64.6846C55.6027 65.3309 56.127 65.8552 56.7739 65.8552H58.5965C59.2434 65.8552 59.7671 65.3309 59.7671 64.6846C59.7671 64.0382 59.2434 63.5139 58.5965 63.5139Z" fill="#238995"/>
<path d="M74.8477 0.156128H5.15322C2.31202 0.156128 0 2.46754 0 5.30935V61.9606C0 64.8018 2.31202 67.1132 5.15322 67.1132H9.55936C10.2057 67.1132 10.73 66.5895 10.73 65.9425C10.73 65.2962 10.2057 64.7719 9.55936 64.7719H5.15322C3.60292 64.7719 2.34193 63.5109 2.34193 61.9606V57.519H44.9977V59.5369H44.0694C42.7992 59.5369 41.7665 60.5696 41.7665 61.8397V64.7719H16.6779C16.0316 64.7719 15.5073 65.2962 15.5073 65.9425C15.5073 66.5895 16.0316 67.1132 16.6779 67.1132H27.9353V71.3124H24.4001C22.0417 71.3124 20.1234 73.2314 20.1234 75.5892V78.1185C20.1234 79.1946 20.9986 80.0698 22.0747 80.0698H57.8365C58.9126 80.0698 59.7878 79.1946 59.7878 78.1185V75.5892C59.7878 73.2314 57.8695 71.3124 55.5111 71.3124H51.9759V69.8323H73.6209C74.8904 69.8323 75.9231 68.7996 75.9231 67.5295V66.9783C78.2053 66.4485 79.9112 64.4008 79.9112 61.9606L79.9997 5.30874C80.0003 2.46754 77.6889 0.156128 74.8477 0.156128V0.156128ZM44.1084 54.7316V49.1194H73.5818V54.7316H44.1084ZM47.3391 46.7774V44.314H70.3506V46.7774H47.3391ZM70.3506 57.0729V59.5369H47.3391V57.0729H70.3506ZM30.2766 67.1132H41.7665V67.5301C41.7665 68.7996 42.7992 69.8323 44.0694 69.8323H49.6346V71.3124H30.2766V67.1132ZM55.5117 73.6544C56.5786 73.6544 57.4465 74.5223 57.4465 75.5892V77.7285H22.4647V75.5892C22.4647 74.5223 23.3332 73.6544 24.4001 73.6544H55.5117ZM73.5818 67.4904H44.1084V61.8788H73.5818V67.4904ZM77.5699 61.9606C77.5699 63.0946 76.8936 64.0718 75.9238 64.5155V61.8391C75.9238 60.5696 74.8904 59.5369 73.6209 59.5369H72.6925V57.519H77.5699V61.9606ZM77.5699 55.1777H75.8853C75.9091 55.0453 75.9238 49.0803 75.9238 49.0803C75.9238 47.8101 74.8904 46.7774 73.6209 46.7774H72.6925V44.314H73.6209C74.8904 44.314 75.9238 43.2807 75.9238 42.0112V36.3208C75.9238 35.0513 74.8904 34.018 73.6209 34.018H67.0077C66.3607 34.018 65.837 34.5423 65.837 35.1892C65.837 35.8356 66.3607 36.3599 67.0077 36.3599H73.5818V41.9721H44.1084V36.3599H59.7225C60.3695 36.3599 60.8932 35.8356 60.8932 35.1892C60.8932 34.5423 60.3695 34.018 59.7225 34.018H44.0694C42.7992 34.018 41.7665 35.0513 41.7665 36.3208V42.0112C41.7665 43.2807 42.7992 44.314 44.0694 44.314H44.9977V46.7774H44.0694C42.7992 46.7774 41.7665 47.8108 41.7665 49.0803C41.7665 49.0803 41.7812 55.0453 41.805 55.1777H2.34193V16.0827H77.5699V55.1777ZM77.5699 13.7408H2.42799V5.30874C2.42799 3.75905 3.68898 2.49806 5.23928 2.49806H74.7586C76.3089 2.49806 77.5699 3.75905 77.5699 5.30935V13.7408Z" fill="#238995"/>
<path d="M8.63466 4.65015C6.74012 4.65015 5.19897 6.19129 5.19897 8.08583C5.19897 9.98037 6.74012 11.5221 8.63466 11.5221C10.5292 11.5221 12.0709 9.98037 12.0709 8.08583C12.0709 6.19129 10.5292 4.65015 8.63466 4.65015ZM8.63466 9.18019C8.03163 9.18019 7.54029 8.68947 7.54029 8.08583C7.54029 7.4828 8.03163 6.99146 8.63466 6.99146C9.2383 6.99146 9.72902 7.4828 9.72902 8.08583C9.72902 8.68947 9.2383 9.18019 8.63466 9.18019Z" fill="#238995"/>
<path d="M17.3828 4.65015C15.4883 4.65015 13.9465 6.19129 13.9465 8.08583C13.9465 9.98037 15.4883 11.5221 17.3828 11.5221C19.2774 11.5221 20.8185 9.98037 20.8185 8.08583C20.8185 6.19129 19.2768 4.65015 17.3828 4.65015ZM17.3828 9.18019C16.7792 9.18019 16.2885 8.68947 16.2885 8.08583C16.2885 7.4828 16.7792 6.99146 17.3828 6.99146C17.9859 6.99146 18.4772 7.4828 18.4772 8.08583C18.4772 8.68947 17.9859 9.18019 17.3828 9.18019Z" fill="#238995"/>
<path d="M26.1305 4.65015C24.236 4.65015 22.6948 6.19129 22.6948 8.08583C22.6948 9.98037 24.236 11.5221 26.1305 11.5221C28.025 11.5221 29.5668 9.98037 29.5668 8.08583C29.5668 6.19129 28.025 4.65015 26.1305 4.65015ZM26.1305 9.18019C25.5275 9.18019 25.0361 8.68947 25.0361 8.08583C25.0361 7.4828 25.5275 6.99146 26.1305 6.99146C26.7341 6.99146 27.2249 7.4828 27.2249 8.08583C27.2249 8.68947 26.7341 9.18019 26.1305 9.18019Z" fill="#238995"/>
</g>
<defs>
<clipPath id="clip0">
<rect width="80" height="80" fill="white"/>
</clipPath>
</defs>
</svg>
