<svg width="80" height="80" viewBox="0 0 80 80" fill="none" xmlns="http://www.w3.org/2000/svg">
<path d="M6.45148 70.9405H40V68.3594H6.45148C4.31371 68.3594 2.58053 66.6262 2.58053 64.4884V7.71418C2.58053 5.57576 4.31371 3.84322 6.45148 3.84322H63.2257C65.3645 3.84322 67.0967 5.57576 67.0967 7.71418V37.3914H69.6778V7.71418C69.6736 4.15273 66.7875 1.2669 63.2257 1.2627H6.45148C2.89068 1.2669 0.00452781 4.15273 0 7.71418V64.4884C0.00452781 68.0499 2.89068 70.9357 6.45148 70.9405Z" fill="#238995"/>
<path d="M5.16162 6.42456H7.74183V9.00477H5.16162V6.42456Z" fill="#238995"/>
<path d="M10.3225 6.42456H12.9037V9.00477H10.3225V6.42456Z" fill="#238995"/>
<path d="M15.4839 6.42456H18.0647V9.00477H15.4839V6.42456Z" fill="#238995"/>
<path d="M5.16162 11.5852H64.5161V14.1664H5.16162V11.5852Z" fill="#238995"/>
<path d="M18.4428 17.1248L15.1653 20.4022C12.3949 18.5682 8.68501 19.1309 6.58249 21.704C4.48029 24.2768 4.66884 28.0245 7.01813 30.3735C9.36709 32.7234 13.1152 32.9119 15.6882 30.8094C18.261 28.7072 18.8241 24.9967 16.9897 22.227L20.2668 18.9495L18.4428 17.1248ZM11.6126 29.6497C9.47511 29.6497 7.74193 27.9168 7.74193 25.779C7.74193 23.6409 9.47511 21.9084 11.6126 21.9084C12.1882 21.9103 12.7545 22.0423 13.271 22.2949L10.7009 24.8654L12.5249 26.6901L15.097 24.1212C15.3496 24.6374 15.4819 25.2037 15.4838 25.779C15.4838 27.9168 13.7513 29.6497 11.6126 29.6497Z" fill="#238995"/>
<path d="M21.9355 21.9082H43.8705V24.4884H21.9355V21.9082Z" fill="#238995"/>
<path d="M21.9355 27.0693H30.9676V29.6495H21.9355V27.0693Z" fill="#238995"/>
<path d="M33.5486 27.0693H51.6126V29.6495H33.5486V27.0693Z" fill="#238995"/>
<path d="M46.4514 21.9082H59.3547V24.4884H46.4514V21.9082Z" fill="#238995"/>
<path d="M18.4428 32.6084L15.1653 35.8859C12.3949 34.0518 8.68501 34.6145 6.58249 37.1876C4.48029 39.7607 4.66884 43.5081 7.01813 45.8577C9.36709 48.207 13.1152 48.3956 15.6882 46.2931C18.261 44.1905 18.8241 40.4813 16.9897 37.7106L20.2668 34.4331L18.4428 32.6084ZM11.6126 45.1336C9.47511 45.1336 7.74193 43.4004 7.74193 41.2627C7.74193 39.1246 9.47511 37.3914 11.6126 37.3914C12.1882 37.3936 12.7545 37.5259 13.271 37.7785L10.7009 40.3497L12.5249 42.1737L15.097 39.6045C15.3496 40.121 15.4819 40.6873 15.4838 41.2627C15.4838 43.4004 13.7513 45.1336 11.6126 45.1336Z" fill="#238995"/>
<path d="M21.9355 37.3914H43.8705V39.9722H21.9355V37.3914Z" fill="#238995"/>
<path d="M21.9355 42.5532H30.9676V45.1338H21.9355V42.5532Z" fill="#238995"/>
<path d="M33.5486 42.5532H43.8707V45.1338H33.5486V42.5532Z" fill="#238995"/>
<path d="M46.4514 37.3914H51.6125V39.9722H46.4514V37.3914Z" fill="#238995"/>
<path d="M18.4428 48.0923L15.1653 51.3698C12.3949 49.5357 8.68501 50.0984 6.58249 52.6715C4.48029 55.2446 4.66884 58.992 7.01813 61.3416C9.36709 63.6913 13.1152 63.8792 15.6882 61.777C18.261 59.6744 18.8241 55.9649 16.9897 53.1942L20.2668 49.917L18.4428 48.0923ZM11.6126 60.6175C9.47511 60.6175 7.74193 58.8843 7.74193 56.7466C7.74193 54.6085 9.47511 52.8756 11.6126 52.8756C12.1882 52.8775 12.7545 53.0095 13.271 53.2624L10.7009 55.8336L12.5249 57.6576L15.097 55.0884C15.3496 55.6049 15.4819 56.1715 15.4838 56.7466C15.4838 58.8843 13.7513 60.6175 11.6126 60.6175Z" fill="#238995"/>
<path d="M21.9355 52.8755H38.7095V55.4567H21.9355V52.8755Z" fill="#238995"/>
<path d="M21.9355 58.0369H30.9676V60.6174H21.9355V58.0369Z" fill="#238995"/>
<path d="M33.5486 58.0369H38.7096V60.6174H33.5486V58.0369Z" fill="#238995"/>
<path d="M60.6456 78.6824C71.3355 78.6824 80.0001 70.0161 80.0001 59.3273C80.0001 48.6374 71.3355 39.9722 60.6456 39.9722C49.9558 39.9722 41.2905 48.6374 41.2905 59.3273C41.3031 70.0113 49.961 78.6694 60.6456 78.6824ZM60.6456 42.553C69.9092 42.553 77.4199 50.063 77.4199 59.3273C77.4199 68.5915 69.9092 76.1012 60.6456 76.1012C51.3811 76.1012 43.8707 68.5915 43.8707 59.3273C43.8817 50.0676 51.3853 42.5634 60.6456 42.553Z" fill="#238995"/>
<path d="M52.7747 60.0404L50.4648 61.1937L53.0457 66.3551C53.2307 66.7264 53.5839 66.9861 53.9936 67.0524C54.0603 67.0627 54.1269 67.0682 54.1938 67.0692C54.5357 67.0692 54.8639 66.933 55.1065 66.6911L70.5897 51.2073L68.7656 49.3826L54.547 63.6005L52.7747 60.0404Z" fill="#238995"/>
</svg>
