<svg width="80" height="80" viewBox="0 0 80 80" fill="none" xmlns="http://www.w3.org/2000/svg">
<g clip-path="url(#clip0)">
<path d="M33.351 5.34912C17.8928 5.34912 5.36157 17.8804 5.36157 33.3385C5.36157 48.7966 17.8928 61.3279 33.351 61.3279C48.8091 61.3279 61.3403 48.7966 61.3403 33.3385C61.3235 17.8874 48.8021 5.36595 33.351 5.34912ZM33.351 8.01478C41.5838 8.02127 49.2987 12.0338 54.0311 18.7707L50.699 22.1028C49.8882 21.6121 48.9599 21.3496 48.0121 21.3431C45.0677 21.3431 42.6808 23.73 42.6808 26.6744C42.6854 27.6232 42.9465 28.553 43.4365 29.3653L34.7091 38.0927C33.0566 37.0851 30.9797 37.0851 29.3272 38.0927L23.2654 32.031C23.7554 31.2186 24.0165 30.2888 24.0212 29.34C24.0248 26.4015 21.6457 24.0164 18.7072 24.0127C16.2769 24.0097 14.1536 25.6536 13.5478 28.0072H8.60301C11.1266 16.3538 21.4275 8.03227 33.351 8.01478ZM50.6777 26.6744C50.6777 28.1466 49.4843 29.34 48.0121 29.34C46.5398 29.34 45.3464 28.1466 45.3464 26.6744C45.3464 25.2021 46.5398 24.0087 48.0121 24.0087C49.4843 24.0087 50.6777 25.2021 50.6777 26.6744ZM34.6838 42.6683C34.6838 44.1406 33.4904 45.334 32.0181 45.334C30.5459 45.334 29.3525 44.1406 29.3525 42.6683C29.3525 41.196 30.5459 40.0026 32.0181 40.0026C33.4904 40.0026 34.6838 41.196 34.6838 42.6683ZM21.3555 29.34C21.3555 30.8123 20.1621 32.0057 18.6899 32.0057C17.2176 32.0057 16.0242 30.8123 16.0242 29.34C16.0242 27.8677 17.2176 26.6744 18.6899 26.6744C20.1621 26.6744 21.3555 27.8677 21.3555 29.34ZM45.6553 55.4811C41.8914 57.571 37.6563 58.6659 33.351 58.6621C19.3746 58.6716 8.03672 47.3494 8.02723 33.373C8.02656 32.471 8.07421 31.5695 8.16984 30.6727H13.5478C14.1537 33.0193 16.2663 34.662 18.6899 34.6712C19.6387 34.6665 20.5685 34.4054 21.3808 33.9155L27.4425 39.9772C26.9526 40.7895 26.6915 41.7193 26.6868 42.6681C26.6868 45.6125 29.0737 47.9995 32.0181 47.9995C34.9625 47.9995 37.3494 45.6125 37.3494 42.6681C37.3448 41.7193 37.0837 40.7895 36.5937 39.9772L45.3211 31.2498C46.1334 31.7398 47.0633 32.0008 48.0121 32.0055C50.9564 32.0055 53.3434 29.6186 53.3434 26.6742C53.3387 25.7254 53.0776 24.7956 52.5877 23.9832L55.4932 21.079C62.2765 33.2957 57.8718 48.698 45.6553 55.4811Z" fill="#238995"/>
<path d="M66.6719 13.346C69.0955 13.3368 71.208 11.6943 71.814 9.3475H80.0002V6.68185H71.814C71.208 4.33507 69.0955 2.69253 66.6719 2.68336C63.7275 2.68336 61.3406 5.07029 61.3406 8.01468C61.3453 8.96348 61.6063 9.8933 62.0963 10.7057L59.7545 13.0474C48.5496 -1.55053 27.6322 -4.30115 13.0343 6.90376C-1.56371 18.1087 -4.31434 39.0263 6.89058 53.6242C17.4672 67.4035 36.8551 70.7461 51.435 61.3038L55.4575 65.3263L57.3421 67.2109L68.0714 77.9402C70.8002 80.669 75.2242 80.669 77.953 77.9402C80.6818 75.2114 80.6818 70.7874 77.953 68.0586L67.2237 57.3293L65.3391 55.4447L61.3166 51.4222C68.4571 40.4237 68.4571 26.2533 61.3166 15.2546L63.9823 12.5889C64.7941 13.0791 65.7236 13.3407 66.6719 13.346ZM66.6719 5.34902C68.1442 5.34902 69.3376 6.5424 69.3376 8.01468C69.3376 9.48695 68.1442 10.6803 66.6719 10.6803C65.1996 10.6803 64.0063 9.48695 64.0063 8.01468C64.0063 6.5424 65.1998 5.34902 66.6719 5.34902ZM76.0684 69.9432C77.7754 71.6119 77.8065 74.3485 76.1378 76.0555C74.4691 77.7626 71.7325 77.7937 70.0255 76.125C70.002 76.1022 69.979 76.079 69.956 76.0555L59.2267 65.3263L65.3391 59.2139L76.0684 69.9432ZM63.4545 57.3293L57.3421 63.4417L53.6528 59.7524C53.8408 59.6085 54.0167 59.4498 54.202 59.3019C54.3872 59.154 54.6018 58.9767 54.8004 58.8101C55.0923 58.5648 55.3802 58.3169 55.6628 58.0624C55.808 57.9291 55.9466 57.7958 56.0893 57.6625C56.6357 57.1507 57.1648 56.6216 57.6767 56.0751C57.8099 55.9325 57.9432 55.7939 58.0765 55.6486C58.3311 55.3661 58.579 55.0782 58.8242 54.7863C58.9913 54.589 59.1553 54.3896 59.316 54.1878C59.4626 54.0039 59.6213 53.828 59.7652 53.64L63.4545 57.3293ZM58.2858 51.1383C57.8659 51.7248 57.4327 52.2992 56.9756 52.8523C56.8423 53.0136 56.6997 53.1696 56.5624 53.3282C56.1546 53.8027 55.7334 54.263 55.2989 54.709C55.1096 54.9044 54.9172 55.0968 54.7218 55.2861C54.2774 55.7206 53.8173 56.1418 53.341 56.5496C53.1824 56.6829 53.0264 56.8282 52.8651 56.9628C52.312 57.4199 51.7376 57.8531 51.1511 58.273C37.3537 68.1301 18.1778 64.9358 8.32071 51.1383C-1.53639 37.3409 1.6579 18.165 15.4553 8.3079C29.2528 -1.5492 48.4287 1.64492 58.2858 15.4425C65.913 26.1188 65.913 40.462 58.2858 51.1383Z" fill="#238995"/>
</g>
<defs>
<clipPath id="clip0">
<rect width="80" height="80" fill="white"/>
</clipPath>
</defs>
</svg>
