<svg width="64" height="64" viewBox="0 0 64 64" fill="none" xmlns="http://www.w3.org/2000/svg">
<path d="M25.2511 44.8502C25.0093 44.8502 24.7658 44.7671 24.5671 44.5979L17.7299 38.776C17.494 38.5749 17.3584 38.2813 17.3584 37.9711C17.3584 37.6616 17.4946 37.3679 17.7299 37.1669L24.5671 31.3449C25.0111 30.9664 25.678 31.0201 26.0565 31.464C26.4345 31.9086 26.3814 32.5755 25.9368 32.9534L20.0447 37.9711L25.9368 42.9888C26.3814 43.3673 26.4345 44.0342 26.0565 44.4782C25.8472 44.7241 25.55 44.8502 25.2511 44.8502Z" fill="#238995"/>
<path d="M38.749 44.8502C38.4501 44.8502 38.1529 44.7241 37.9442 44.4782C37.5656 44.0342 37.6193 43.3673 38.0633 42.9888L43.9554 37.9711L38.0633 32.9534C37.6193 32.5755 37.5656 31.9086 37.9442 31.464C38.3221 31.0201 38.9896 30.9664 39.433 31.3449L46.2702 37.1669C46.5061 37.3679 46.6417 37.6616 46.6417 37.9711C46.6417 38.2813 46.5061 38.5749 46.2702 38.776L39.433 44.5979C39.2343 44.7671 38.9908 44.8502 38.749 44.8502V44.8502Z" fill="#238995"/>
<path d="M29.5798 49.217C29.5072 49.217 29.4341 49.2093 29.3604 49.194C28.7897 49.0737 28.4241 48.5129 28.5444 47.9422L32.8056 27.7105C32.9259 27.1397 33.486 26.7742 34.0574 26.8944C34.6281 27.0147 34.9937 27.5749 34.8734 28.1462L30.6122 48.3779C30.5072 48.8756 30.0686 49.217 29.5798 49.217Z" fill="#238995"/>
<path d="M56.9057 60.2394H7.09434C3.18278 60.2394 0 57.0572 0 53.145V10.8679C0 6.95634 3.18278 3.77356 7.09434 3.77356H56.9057C60.8172 3.77356 64 6.95634 64 10.8679V53.145C64 57.0572 60.8172 60.2394 56.9057 60.2394ZM7.09434 5.88677C4.34788 5.88677 2.11321 8.12144 2.11321 10.8679V53.145C2.11321 55.8915 4.34788 58.1262 7.09434 58.1262H56.9057C59.6521 58.1262 61.8868 55.8915 61.8868 53.145V10.8679C61.8868 8.12144 59.6521 5.88677 56.9057 5.88677H7.09434Z" fill="#238995"/>
<path d="M62.9434 20.6928H1.0566C0.472877 20.6928 0 20.2199 0 19.6362C0 19.0531 0.472877 18.5796 1.0566 18.5796H62.9434C63.5271 18.5796 64 19.0531 64 19.6362C64 20.2199 63.5271 20.6928 62.9434 20.6928Z" fill="#238995"/>
<path d="M18.0532 15.6368C16.2101 15.6368 14.7095 14.1362 14.7095 12.293C14.7095 10.4493 16.2101 8.94928 18.0532 8.94928C19.897 8.94928 21.397 10.4493 21.397 12.293C21.397 14.1362 19.897 15.6368 18.0532 15.6368ZM18.0532 11.0625C17.3752 11.0625 16.8227 11.6144 16.8227 12.293C16.8227 12.9717 17.3752 13.5236 18.0532 13.5236C18.7319 13.5236 19.2838 12.9717 19.2838 12.293C19.2838 11.6144 18.7319 11.0625 18.0532 11.0625Z" fill="#238995"/>
<path d="M7.7793 15.6044C5.93555 15.6044 4.43555 14.1044 4.43555 12.2606C4.43555 10.4169 5.93555 8.91687 7.7793 8.91687C9.62305 8.91687 11.123 10.4169 11.123 12.2606C11.123 14.1044 9.62305 15.6044 7.7793 15.6044ZM7.7793 11.0301C7.10123 11.0301 6.54875 11.5826 6.54875 12.2606C6.54875 12.9393 7.10123 13.4912 7.7793 13.4912C8.45795 13.4912 9.00984 12.9393 9.00984 12.2606C9.00984 11.5826 8.45795 11.0301 7.7793 11.0301Z" fill="#238995"/>
<path d="M28.3266 15.6687C26.4834 15.6687 24.9834 14.1687 24.9834 12.3249C24.9834 10.4818 26.4834 8.98175 28.3266 8.98175C30.1703 8.98175 31.6703 10.4818 31.6703 12.3249C31.6703 14.1687 30.1703 15.6687 28.3266 15.6687ZM28.3266 11.0944C27.6485 11.0944 27.0966 11.6463 27.0966 12.3249C27.0966 13.0036 27.6485 13.5555 28.3266 13.5555C29.0052 13.5555 29.5571 13.0036 29.5571 12.3249C29.5571 11.6463 29.0052 11.0944 28.3266 11.0944Z" fill="#238995"/>
</svg>
