<svg width="200" height="200" viewBox="0 0 200 200" fill="none" xmlns="http://www.w3.org/2000/svg">
<path d="M185.757 146.811C192.12 134.003 195.703 119.569 195.703 104.297C195.703 51.442 152.855 8.59375 100 8.59375C47.1451 8.59375 4.29688 51.442 4.29688 104.297C4.29688 119.569 7.87964 134.003 14.2426 146.811H185.757Z" fill="#0E1F48"/>
<path d="M14.0488 100.623V146.42C29.6295 178.154 62.262 200 100 200C137.738 200 170.37 178.154 185.951 146.42V100.624H14.0488V100.623Z" fill="#E6F7FE"/>
<path d="M14.0488 100.623V146.42C20.2789 159.109 29.2374 170.215 40.1566 178.978V100.623H14.0488Z" fill="#86FDFB"/>
<path d="M14.0488 18.3701H185.951V28.6301H14.0488V18.3701Z" fill="#D5F1FE"/>
<path d="M59.7351 28.6301H14.0488V18.3701H50.0687C55.4077 18.3701 59.7351 22.963 59.7351 28.6301Z" fill="#11DFEF"/>
<path d="M14.0488 18.3701H40.1566V28.6301H14.0488V18.3701Z" fill="#0AC6E5"/>
<path d="M185.426 0C182.109 0 19.4016 0 14.5737 0C14.2838 0 14.0488 0.234985 14.0488 0.524902V18.9651H185.951V0.524902C185.951 0.234985 185.716 0 185.426 0Z" fill="#615DF9"/>
<path d="M44.8441 0C27.7878 0 15.8295 0 14.5737 0C14.2838 0 14.0488 0.234985 14.0488 0.524902V18.9651H40.1566V4.6875C40.1566 2.10876 42.2668 0 44.8441 0Z" fill="#3342AE"/>
<path d="M28.2425 13.2064C26.091 13.2064 24.3362 11.4531 24.3362 9.30013C24.3362 7.43703 25.6454 5.83944 27.4811 5.46712C29.8706 4.98647 32.1487 6.82363 32.1487 9.30013C32.1487 11.4699 30.3741 13.2064 28.2425 13.2064Z" fill="#F948B4"/>
<path d="M40.1566 13.2066C38.0356 13.2066 36.2503 11.4793 36.2503 9.30033C36.2503 6.82993 38.5223 4.98515 40.918 5.46732C42.8101 5.85185 44.0628 7.50437 44.0628 9.30033C44.0628 11.4518 42.3096 13.2066 40.1566 13.2066Z" fill="#FECD0A"/>
<path d="M52.0706 13.2066C49.9496 13.2066 48.1644 11.4793 48.1644 9.30032C48.1644 6.81771 50.4471 4.98666 52.832 5.46731C54.7241 5.85183 55.9769 7.50589 55.9769 9.30032C55.9769 11.4518 54.2236 13.2066 52.0706 13.2066Z" fill="#39DF74"/>
<path d="M174.664 12.4116H154.091C152.472 12.4116 151.161 11.0994 151.161 9.48193C151.161 7.8645 152.472 6.55225 154.091 6.55225H174.664C176.282 6.55225 177.594 7.8645 177.594 9.48193C177.594 11.0994 176.282 12.4116 174.664 12.4116Z" fill="#AEAEFF"/>
<path d="M139.372 12.4116H67.5568C65.9393 12.4116 64.6271 11.0994 64.6271 9.48193C64.6271 7.8645 65.9393 6.55225 67.5568 6.55225H139.372C140.991 6.55225 142.302 7.8645 142.302 9.48193C142.302 11.0994 140.991 12.4116 139.372 12.4116Z" fill="#AEAEFF"/>
<path d="M124.002 9.48193C124.002 7.8645 125.314 6.55225 126.932 6.55225H67.5568C65.9393 6.55225 64.6271 7.8645 64.6271 9.48193C64.6271 11.1009 65.9393 12.4116 67.5568 12.4116H126.932C125.314 12.4116 124.002 11.1009 124.002 9.48193Z" fill="#8181FC"/>
<path d="M14.0488 28.6301H185.951V104.332H14.0488V28.6301Z" fill="#4FBBFF"/>
<path d="M14.0488 104.332H100.627C101.471 101.616 100.925 98.8404 97.0734 96.8598C86.6242 91.4887 102.542 84.2621 91.9952 79.9653C86.0809 77.5559 85.2005 73.2407 85.5698 69.9143C85.8261 67.5995 84.1385 65.5457 81.8207 65.3092C72.1222 64.3204 70.5277 57.4006 70.433 53.3997C70.3918 51.7365 69.3924 50.2335 67.8452 49.6232C51.7639 43.2862 59.7351 28.6301 59.7351 28.6301H14.0488V104.332Z" fill="#27A3FF"/>
<path d="M185.951 104.332V52.0797C180.594 55.4946 173.497 58.6135 165.193 58.85C162.72 63.0019 158.185 65.7912 153.009 65.7912C144.469 65.7912 137.773 58.2275 138.974 49.6474C134.357 46.2051 122.62 35.2035 104.144 35.3835C82.753 35.5911 71.759 50.5035 66.2094 54.3258C66.2094 54.3258 40.9317 76.8401 14.0488 54.66V104.332H185.951Z" fill="#27A3FF"/>
<path d="M97.0734 96.8597C86.6242 91.4886 102.542 84.262 91.9952 79.9651C86.0809 77.5558 85.2005 73.2406 85.5698 69.9142C85.8261 67.5994 84.1385 65.5456 81.8207 65.3091C72.1222 64.3203 70.5277 57.4005 70.4315 53.3996C70.4132 52.6397 70.1935 51.9134 69.812 51.2893C68.4128 52.5649 67.2195 53.63 66.2094 54.3258C66.2094 54.3258 40.9317 76.8401 14.0488 54.66V104.332H100.627C101.471 101.616 100.925 98.8403 97.0734 96.8597Z" fill="#0080F4"/>
<path d="M185.951 104.332V81.1599L175.827 71.0342C171.857 67.0654 165.421 67.0654 161.452 71.0342L154.401 78.0868C152.666 79.8217 149.852 79.8217 148.119 78.0868L119.067 49.0356C114.682 44.6502 107.571 44.6502 103.186 49.0356L65.7578 86.4639C64.3143 87.9074 61.9736 87.9074 60.5316 86.4639L52.034 77.9678C47.5159 73.4497 40.1917 73.4497 35.6735 77.9678L14.0488 99.5926V104.332H185.951Z" fill="#A2EC00"/>
<path d="M97.0734 96.8597C86.6242 91.4886 102.542 84.2621 91.9952 79.9652C86.0809 77.5558 85.2005 73.2407 85.5698 69.9142C85.6766 68.9453 85.4401 68.0237 84.9625 67.2607L65.7578 86.4639C64.3143 87.9074 61.9736 87.9074 60.5316 86.4639L52.034 77.9663C47.5159 73.4497 40.1917 73.4497 35.6735 77.9663L14.0488 99.5926V104.332H100.627C101.471 101.616 100.925 98.8403 97.0734 96.8597Z" fill="#00C82F"/>
<path d="M185.951 104.332V85.5972C175.688 95.7031 159.293 103.836 138.229 87.6129C82.4951 44.6854 72.6181 137.456 14.0488 84.32V104.332H185.951Z" fill="#00C82F"/>
<path d="M97.0734 96.8598C86.8591 91.6093 101.836 84.5856 92.6621 80.2598C69.696 91.6306 52.2049 118.936 14.0488 84.3201V104.332H100.627C101.471 101.616 100.925 98.8404 97.0734 96.8598Z" fill="#02AD22"/>
<path d="M172.592 114.707H27.3636C25.9171 114.707 24.7452 115.88 24.7452 117.326V137.074C24.7452 138.521 25.9171 139.693 27.3636 139.693H172.592C174.039 139.693 175.212 138.521 175.212 137.074V117.326C175.212 115.88 174.039 114.707 172.592 114.707Z" fill="#4FBBFF"/>
<path d="M37.6358 137.074V117.326C37.6358 115.88 38.8077 114.707 40.2542 114.707H27.3636C25.9171 114.707 24.7452 115.88 24.7452 117.326V137.074C24.7452 138.521 25.9171 139.693 27.3636 139.693H40.2542C38.8077 139.693 37.6358 138.521 37.6358 137.074Z" fill="#27A3FF"/>
<path d="M64.9109 149.965H27.6459C26.0498 149.965 24.7452 151.269 24.7452 152.866V163.428C35.7864 177.461 50.6729 188.325 67.8116 194.446V152.866C67.8131 151.269 66.507 149.965 64.9109 149.965Z" fill="#FECD0A"/>
<path d="M39.9567 152.866C39.9567 151.269 41.2628 149.965 42.8574 149.965H27.6459C26.0498 149.965 24.7452 151.269 24.7452 152.866V163.428C29.2191 169.115 34.3246 174.28 39.9567 178.822V152.866Z" fill="#FCA60D"/>
<path d="M49.2844 166.333H43.8629C41.7053 166.333 39.9567 164.584 39.9567 162.427C39.9567 160.269 41.7053 158.521 43.8629 158.521H49.2844C51.442 158.521 53.1906 160.269 53.1906 162.427C53.1906 164.584 51.442 166.333 49.2844 166.333Z" fill="#FCA60D"/>
<path d="M56.7871 182.765H45.2057C48.2498 184.894 51.4236 186.853 54.7134 188.625H56.7871C58.4061 188.625 59.7168 187.312 59.7168 185.695C59.7168 184.076 58.4061 182.765 56.7871 182.765Z" fill="#FCE395"/>
<path d="M56.7871 172.107H36.3586C35.3134 172.107 34.3964 172.658 33.8791 173.483C35.5026 175.037 37.1826 176.53 38.9114 177.966H56.7871C58.4045 177.966 59.7168 176.656 59.7168 175.037C59.7168 173.419 58.4061 172.107 56.7871 172.107Z" fill="#FCE395"/>
<path d="M118.611 149.965H81.3446C79.7501 149.965 78.4439 151.269 78.4439 152.866V197.562C85.3729 199.156 92.5873 200 100 200C107.397 200 114.597 199.159 121.512 197.571V152.866C121.512 151.269 120.207 149.965 118.611 149.965Z" fill="#FECD0A"/>
<path d="M93.6569 152.866C93.6569 151.269 94.9615 149.965 96.5576 149.965H81.3446C79.7501 149.965 78.4439 151.269 78.4439 152.866V197.562C83.3786 198.698 88.4628 199.445 93.6569 199.785V152.866Z" fill="#FCA60D"/>
<path d="M102.983 166.333H97.5632C95.4056 166.333 93.6569 164.584 93.6569 162.427C93.6569 160.269 95.4056 158.521 97.5632 158.521H102.983C105.141 158.521 106.889 160.269 106.889 162.427C106.889 164.584 105.141 166.333 102.983 166.333Z" fill="#FCA60D"/>
<path d="M110.487 188.625H90.0589C88.4415 188.625 87.1292 187.312 87.1292 185.695C87.1292 184.076 88.4415 182.765 90.0589 182.765H110.487C112.105 182.765 113.417 184.076 113.417 185.695C113.417 187.312 112.105 188.625 110.487 188.625Z" fill="#FCE395"/>
<path d="M110.487 177.966H90.0589C88.4415 177.966 87.1292 176.656 87.1292 175.037C87.1292 173.419 88.4415 172.107 90.0589 172.107H110.487C112.105 172.107 113.417 173.419 113.417 175.037C113.417 176.656 112.105 177.966 110.487 177.966Z" fill="#FCE395"/>
<path d="M175.212 163.481V152.866C175.212 151.27 173.906 149.963 172.31 149.963H135.045C133.449 149.963 132.144 151.27 132.144 152.866V194.461C149.28 188.351 164.165 177.501 175.212 163.481Z" fill="#FECD0A"/>
<path d="M147.356 152.866C147.356 151.269 148.662 149.965 150.256 149.965H135.045C133.45 149.965 132.144 151.269 132.144 152.866V194.461C137.447 192.57 142.532 190.225 147.356 187.474V152.866Z" fill="#FCA60D"/>
<path d="M156.683 166.333H151.262C149.106 166.333 147.356 164.584 147.356 162.427C147.356 160.269 149.106 158.521 151.262 158.521H156.683C158.841 158.521 160.59 160.269 160.59 162.427C160.59 164.584 158.841 166.333 156.683 166.333Z" fill="#FCA60D"/>
<path d="M143.759 182.765C142.14 182.765 140.829 184.076 140.829 185.695C140.829 187.312 142.14 188.625 143.759 188.625H145.287C148.576 186.853 151.75 184.894 154.794 182.765H143.759Z" fill="#FCE395"/>
<path d="M164.186 172.107H143.759C142.14 172.107 140.829 173.419 140.829 175.037C140.829 176.656 142.14 177.966 143.759 177.966H161.089C162.933 176.434 164.719 174.834 166.443 173.169C165.906 172.52 165.096 172.107 164.186 172.107Z" fill="#FCE395"/>
<path d="M126.456 75.8882H72.4655C71.4432 75.8882 70.6146 76.7167 70.6146 77.7391V84.0989C70.6146 85.1213 71.4432 85.9498 72.4655 85.9498H126.456V75.8882Z" fill="#E6F7FE"/>
<path d="M88.6261 84.0989V77.7391C88.6261 76.7167 89.4547 75.8882 90.4755 75.8882H72.4655C71.4432 75.8882 70.6146 76.7167 70.6146 77.7391V84.0989C70.6146 85.1213 71.4432 85.9498 72.4655 85.9498H90.4755C89.4547 85.9498 88.6261 85.1213 88.6261 84.0989Z" fill="#86FDFB"/>
<path d="M134.465 75.8882H125.674V85.9498H134.465C135.486 85.9498 136.314 85.1213 136.314 84.0989V77.7391C136.314 76.7167 135.486 75.8882 134.465 75.8882Z" fill="#F948B4"/>
<path d="M167.789 51.6158C167.789 59.7793 161.171 66.3955 153.009 66.3955C144.847 66.3955 138.229 59.7793 138.229 51.6158C138.229 43.4539 144.847 36.8362 153.009 36.8362C161.171 36.8362 167.789 43.4539 167.789 51.6158Z" fill="#FECD0A"/>
<path d="M150.911 36.9873C143.742 38.0066 138.229 44.165 138.229 51.6159C138.229 65.8783 156.48 71.8124 164.912 60.376C151.741 62.2482 143.292 47.3221 150.911 36.9873Z" fill="#FCA60D"/>
</svg>
