<svg width="250" height="250" viewBox="0 0 250 250" fill="none" xmlns="http://www.w3.org/2000/svg">
<g clip-path="url(#clip0)">
<path d="M125 250C194.036 250 250 194.036 250 125C250 55.9645 194.036 0 125 0C55.9645 0 0 55.9645 0 125C0 194.036 55.9645 250 125 250Z" fill="#0E1F48"/>
<path d="M125 212.898C174.157 212.898 214.006 209.757 214.006 205.882C214.006 202.007 174.157 198.866 125 198.866C75.8436 198.866 35.9943 202.007 35.9943 205.882C35.9943 209.757 75.8436 212.898 125 212.898Z" fill="#111117"/>
<path d="M32.2174 32.8232H217.783C223.88 32.8232 228.868 37.812 228.868 43.9083V158.218H21.1323V43.9078C21.1323 37.8111 26.1201 32.8232 32.2174 32.8232Z" fill="#666666"/>
<path d="M28.6597 150.692H221.34V43.9087C221.34 41.9668 219.724 40.3506 217.783 40.3506H32.2183C30.2764 40.3506 28.6611 41.9668 28.6611 43.9087V150.693H28.6597V150.692Z" fill="#21D0C3"/>
<path d="M228.867 158.219V170.341C228.867 176.439 223.369 181.426 216.648 181.426H33.3518C26.6305 181.426 21.1324 176.439 21.1324 170.341V158.219H228.867Z" fill="white"/>
<path d="M41.9602 86.0596C59.5819 86.0596 74.4668 97.7696 79.2627 113.831C87.1182 117.377 92.8717 124.757 94.1388 133.583C95.523 133.25 96.9693 133.073 98.4562 133.073C102.733 133.073 106.668 134.531 109.793 136.976C110.775 130.776 116.145 126.035 122.621 126.035C123.434 126.035 124.23 126.111 125 126.253C125.771 126.11 126.567 126.035 127.379 126.035C133.856 126.035 139.226 130.776 140.208 136.976C143.332 134.531 147.268 133.073 151.544 133.073C153.031 133.073 154.476 133.251 155.861 133.583C157.128 124.756 162.882 117.376 170.737 113.831C175.535 97.7696 190.419 86.0596 208.04 86.0596C212.711 86.0596 217.19 86.8833 221.34 88.3916V150.692H133.155L133.156 150.662L133.096 150.692H116.907L116.846 150.662L116.847 150.692H28.6613V88.3916C32.8112 86.8833 37.2898 86.0596 41.9617 86.0596H41.9602Z" fill="#ECF0F1"/>
<path d="M41.9602 88.354C59.5819 88.354 74.4668 100.064 79.2627 116.126C87.1182 119.671 92.8717 127.051 94.1388 135.878C95.523 135.545 96.9693 135.367 98.4562 135.367C102.733 135.367 106.668 136.825 109.793 139.271C110.775 133.071 116.145 128.329 122.621 128.329C123.434 128.329 124.23 128.405 125 128.548C125.771 128.405 126.567 128.329 127.379 128.329C133.856 128.329 139.226 133.071 140.208 139.271C143.332 136.825 147.268 135.367 151.544 135.367C153.031 135.367 154.476 135.545 155.861 135.878C157.128 127.051 162.882 119.671 170.737 116.126C175.535 100.064 190.419 88.354 208.04 88.354C212.711 88.354 217.19 89.1777 221.34 90.686V150.692H28.6613V90.6856C32.8112 89.1773 37.2898 88.3535 41.9617 88.3535H41.9602V88.354Z" fill="white"/>
<path d="M145.565 64.6454C145.899 64.2865 143.777 70.7328 142.123 73.142C140.47 75.5511 138.252 77.9383 138.252 77.9383L138.819 75.3094L132.721 81.0497L132.832 78.7855C132.832 78.7855 130.328 80.4369 127.373 81.8519C124.527 83.2128 124.462 83.1527 125.612 80.2157C126.805 77.1634 128.271 74.5467 128.271 74.5467L126.021 74.8236L131.301 68.3241L128.72 69.0819C128.72 69.0819 130.938 66.6952 133.221 64.8705C135.504 63.0453 141.777 60.4598 141.445 60.8182L143.425 62.8207L145.566 64.6488V64.6463H145.565V64.6454Z" fill="white"/>
<path d="M160.999 54.2659L164.226 66.1795L149.079 83.3089L150.007 62.7215L161 54.2659C161 54.2659 160.999 54.2659 160.999 54.2659Z" fill="#515ED4"/>
<path d="M150.67 44.6638L138.553 42.3157L122.574 58.6731L143.039 56.2434L150.669 44.6624L150.67 44.6638Z" fill="#515ED4"/>
<path d="M149.428 65.929L144.654 61.4924L139.882 57.0569C149.068 46.3103 160.745 -2.06517 201.745 0.0710575C208.799 39.9187 158.701 57.0007 149.428 65.929Z" fill="#FAD24D"/>
<path d="M201.263 17.0329C195.176 14.3718 188.288 7.8283 185.371 2.16668C190.245 0.551448 195.672 -0.246892 201.744 0.0695142C202.838 6.25311 202.555 11.8889 201.263 17.0329Z" fill="#515ED4"/>
<path d="M136.854 60.2599L146.426 69.1562L149.603 65.7383L140.031 56.8421L136.854 60.2599Z" fill="#666666"/>
<path d="M180.585 31.1177C184.644 31.1177 187.934 27.8274 187.934 23.7686C187.934 19.7098 184.644 16.4195 180.585 16.4195C176.526 16.4195 173.236 19.7098 173.236 23.7686C173.236 27.8274 176.526 31.1177 180.585 31.1177Z" fill="white"/>
<path d="M180.585 29.8014C183.917 29.8014 186.618 27.1002 186.618 23.7682C186.618 20.4361 183.917 17.735 180.585 17.735C177.253 17.735 174.552 20.4361 174.552 23.7682C174.552 27.1002 177.253 29.8014 180.585 29.8014Z" fill="#21D0C3"/>
<path d="M122.825 72.6152C115.278 78.0551 102.078 115.782 132.126 135.759C132.126 135.759 109.176 109.035 130.84 83.393C127.02 85.0444 119.932 91.2929 122.825 72.6152Z" fill="white"/>
<path d="M106.399 130.066C108.817 130.066 110.777 128.105 110.777 125.687C110.777 123.269 108.817 121.309 106.399 121.309C103.98 121.309 102.02 123.269 102.02 125.687C102.02 128.105 103.98 130.066 106.399 130.066Z" fill="white"/>
<path d="M126.296 118.85C127.066 118.85 127.69 118.226 127.69 117.456C127.69 116.686 127.066 116.062 126.296 116.062C125.526 116.062 124.902 116.686 124.902 117.456C124.902 118.226 125.526 118.85 126.296 118.85Z" fill="white"/>
<path d="M109.313 114.744C110.364 114.744 111.216 113.892 111.216 112.841C111.216 111.79 110.364 110.938 109.313 110.938C108.261 110.938 107.409 111.79 107.409 112.841C107.409 113.892 108.261 114.744 109.313 114.744Z" fill="white"/>
<path d="M142.475 131.05C143.518 131.05 144.364 130.205 144.364 129.162C144.364 128.119 143.518 127.274 142.475 127.274C141.433 127.274 140.587 128.119 140.587 129.162C140.587 130.205 141.433 131.05 142.475 131.05Z" fill="white"/>
<path d="M125 173.154C127.108 173.154 128.817 171.445 128.817 169.337C128.817 167.23 127.108 165.521 125 165.521C122.892 165.521 121.184 167.23 121.184 169.337C121.184 171.445 122.892 173.154 125 173.154Z" fill="#B6B6B8"/>
<path d="M148.958 198.864L166.582 204.512H83.4165L97.6372 198.864V181.427H148.958V198.864H148.958Z" fill="#C2C2C4"/>
<path d="M148.958 198.864L97.6368 181.427H148.958V198.864Z" fill="#B0B0B0"/>
<path d="M97.6367 198.864H148.958L166.582 204.512V206.943H125H83.4165V204.512L97.6367 198.864Z" fill="#ECF0F1"/>
</g>
<defs>
<clipPath id="clip0">
<rect width="250" height="250" fill="white"/>
</clipPath>
</defs>
</svg>
