<svg width="200" height="200" viewBox="0 0 200 200" fill="none" xmlns="http://www.w3.org/2000/svg">
<path d="M185.564 147.202C192.047 134.296 195.703 119.724 195.703 104.297C195.703 51.442 152.855 8.59375 100 8.59375C47.1451 8.59375 4.29688 51.442 4.29688 104.297C4.29688 119.724 7.95288 134.296 14.4363 147.202H185.564Z" fill="#0E1F48"/>
<path d="M185.951 27.8489H14.0488V146.42C29.6295 178.154 62.262 200 100 200C137.738 200 170.37 178.154 185.951 146.42V27.8489Z" fill="#E6F7FE"/>
<path d="M40.1566 27.8489H14.0488V146.42C20.2789 159.11 29.2374 170.215 40.1566 178.978V27.8489Z" fill="#D5F1FE"/>
<path d="M14.0488 18.3701H185.951V28.6301H14.0488V18.3701Z" fill="#D5F1FE"/>
<path d="M59.7351 28.6301H14.0488V18.3701H50.0687C55.4077 18.3701 59.7351 22.963 59.7351 28.6301Z" fill="#11DFEF"/>
<path d="M14.0488 18.3701H40.1566V28.6301H14.0488V18.3701Z" fill="#0AC6E5"/>
<path d="M185.426 0C182.109 0 19.4016 0 14.5737 0C14.2838 0 14.0488 0.234985 14.0488 0.524902V18.9651H185.951V0.524902C185.951 0.234985 185.716 0 185.426 0Z" fill="#615DF9"/>
<path d="M40.1566 5.3009C40.1566 2.38495 42.5415 0 45.4575 0C28.0746 0 15.8447 0 14.5737 0C14.2822 0 14.0488 0.234985 14.0488 0.524902V18.9651H40.1566V5.3009Z" fill="#3342AE"/>
<path d="M28.2425 13.2064C26.091 13.2064 24.3362 11.4531 24.3362 9.30013C24.3362 7.43703 25.6454 5.83944 27.4811 5.46712C29.8706 4.98647 32.1487 6.82363 32.1487 9.30013C32.1487 11.4699 30.3741 13.2064 28.2425 13.2064Z" fill="#F948B4"/>
<path d="M40.1566 13.2066C38.0356 13.2066 36.2503 11.4793 36.2503 9.30033C36.2503 6.82993 38.5223 4.98515 40.918 5.46732C42.8101 5.85185 44.0628 7.50437 44.0628 9.30033C44.0628 11.4518 42.3096 13.2066 40.1566 13.2066Z" fill="#FECD0A"/>
<path d="M52.0706 13.2066C49.9496 13.2066 48.1644 11.4793 48.1644 9.30032C48.1644 6.81771 50.4471 4.98666 52.832 5.46731C54.7241 5.85183 55.9769 7.50589 55.9769 9.30032C55.9769 11.4518 54.2236 13.2066 52.0706 13.2066Z" fill="#39DF74"/>
<path d="M176.286 102.833V40.7347C176.286 39.3874 175.194 38.2964 173.846 38.2964H87.8738C86.5265 38.2964 85.434 39.3874 85.434 40.7347V102.833C85.434 104.179 86.5265 105.272 87.8738 105.272H173.846C175.194 105.272 176.286 104.179 176.286 102.833Z" fill="#11DFEF"/>
<path d="M101.862 102.833V40.7347C101.862 39.3874 102.953 38.2964 104.3 38.2964H87.8738C86.5265 38.2964 85.434 39.3874 85.434 40.7347V102.833C85.434 104.179 86.5265 105.272 87.8738 105.272H104.3C102.953 105.272 101.862 104.179 101.862 102.833Z" fill="#0AC6E5"/>
<path d="M89.505 38.2964H26.1536C24.8062 38.2964 23.7137 39.3874 23.7137 40.7347V102.833C23.7137 104.179 24.8062 105.272 26.1536 105.272H89.505V38.2964Z" fill="#615DF9"/>
<path d="M40.1566 102.833V40.7347C40.1566 39.3874 41.2491 38.2964 42.5964 38.2964H26.1536C24.8062 38.2964 23.7137 39.3874 23.7137 40.7347V102.833C23.7137 104.179 24.8062 105.272 26.1536 105.272H42.5964C41.2491 105.272 40.1566 104.179 40.1566 102.833Z" fill="#3342AE"/>
<path d="M78.8361 48.2544H34.3826C33.6426 48.2544 33.0368 48.8602 33.0368 49.6002V57.46C33.0368 57.46 43.8828 49.5987 55.9692 59.5169C56.2851 59.7763 56.5964 60.0174 56.9092 60.2493C56.8726 60.5087 56.8527 60.7727 56.8527 61.0428C56.8527 64.1907 59.4131 66.7526 62.561 66.7526C64.6454 66.7526 66.4719 65.6281 67.4698 63.9557C75.0626 63.7405 80.1819 57.5409 80.1819 57.5409V49.6002C80.1819 48.8602 79.5761 48.2544 78.8361 48.2544Z" fill="#FCE395"/>
<path d="M34.3826 48.2544C33.6426 48.2544 33.0368 48.8602 33.0368 49.6002V57.46C33.0368 57.46 37.7991 54.01 44.5282 54.567C44.5435 54.5486 44.5587 54.5288 44.5724 54.512C44.8868 54.1428 44.8929 53.6163 44.6152 53.2181C42.8299 50.6516 45.1981 48.2544 45.1981 48.2544H34.3826Z" fill="#FECD0A"/>
<path d="M161.33 72.1116H104.401C102.782 72.1116 101.471 70.7993 101.471 69.1819C101.471 67.5629 102.782 66.2522 104.401 66.2522H161.33C162.949 66.2522 164.259 67.5629 164.259 69.1819C164.259 70.7993 162.949 72.1116 161.33 72.1116Z" fill="#E6F7FE"/>
<path d="M161.33 83.3955H104.401C102.782 83.3955 101.471 82.0848 101.471 80.4658C101.471 78.8484 102.782 77.5361 104.401 77.5361H161.33C162.949 77.5361 164.259 78.8484 164.259 80.4658C164.259 82.0848 162.949 83.3955 161.33 83.3955Z" fill="#E6F7FE"/>
<path d="M132.864 94.6807H104.399C102.782 94.6807 101.469 93.3684 101.469 91.751C101.469 90.132 102.782 88.8213 104.399 88.8213H132.864C134.483 88.8213 135.794 90.132 135.794 91.751C135.794 93.3684 134.483 94.6807 132.864 94.6807Z" fill="#E6F7FE"/>
<path d="M134.232 57.9834H105.766C103.609 57.9834 101.86 56.2347 101.86 54.0771C101.86 51.9196 103.609 50.1709 105.766 50.1709H134.232C136.389 50.1709 138.138 51.9196 138.138 54.0771C138.138 56.2347 136.389 57.9834 134.232 57.9834Z" fill="#8181FC"/>
<path d="M123.027 54.0771C123.027 51.9196 124.776 50.1709 126.933 50.1709H105.768C103.61 50.1709 101.862 51.9196 101.862 54.0771C101.862 56.2347 103.61 57.9834 105.768 57.9834H126.933C124.776 57.9834 123.027 56.2347 123.027 54.0771Z" fill="#615DF9"/>
<path d="M161.33 94.6807H157.278C155.659 94.6807 154.349 93.3684 154.349 91.751C154.349 90.132 155.659 88.8213 157.278 88.8213H161.33C162.947 88.8213 164.259 90.132 164.259 91.751C164.259 93.3684 162.949 94.6807 161.33 94.6807Z" fill="#E6F7FE"/>
<path d="M42.4957 63.4582C44.2612 61.6928 47.1252 61.6928 48.8922 63.4582L60.5911 75.1587C61.29 75.8575 62.4237 75.8575 63.1226 75.1587L65.9622 72.319C67.5613 70.7199 70.1538 70.7199 71.7514 72.319L80.1819 80.7495V56.7596C80.1819 56.7596 75.0626 62.9593 67.4698 63.1744C66.4734 64.8468 64.6469 65.9714 62.5626 65.9714C59.4147 65.9714 56.8527 63.4094 56.8527 60.2615C56.8527 59.9914 56.8726 59.7275 56.9092 59.4681C56.5979 59.2361 56.2851 58.995 55.9692 58.7356C43.8843 48.8174 33.0368 56.6787 33.0368 56.6787V72.9187L42.4957 63.4582Z" fill="#FECD0A"/>
<path d="M45.1263 62.175C45.1614 62.1139 45.1981 62.0559 45.2332 62.001C45.4773 61.6165 45.4483 61.1145 45.1492 60.7696C42.5369 57.7575 43.7103 55.5267 44.5725 54.512C44.7449 54.3106 44.8212 54.0603 44.812 53.8101C37.9334 53.1295 33.0368 56.6787 33.0368 56.6787V72.9187L42.4957 63.4582C43.2343 62.7212 44.165 62.2955 45.1263 62.175Z" fill="#FCA60D"/>
<path d="M68.5135 60.2615C68.5135 63.5483 65.8493 66.214 62.561 66.214C59.2743 66.214 56.6101 63.5483 56.6101 60.2615C56.6101 56.9733 59.2743 54.3091 62.561 54.3091C65.8493 54.3091 68.5135 56.9733 68.5135 60.2615Z" fill="#FCA60D"/>
<path d="M61.7371 54.3716C58.8409 54.7744 56.6101 57.254 56.6101 60.2615C56.6101 63.5482 59.2743 66.2139 62.561 66.2139C64.6988 66.2139 66.568 65.0833 67.6178 63.3911C62.5748 64.0899 59.111 58.6059 61.7371 54.3716Z" fill="#F98A10"/>
<path d="M71.7514 71.5379C70.1523 69.9388 67.5598 69.9388 65.9622 71.5379L63.1226 74.3775C62.4237 75.0764 61.29 75.0764 60.5911 74.3775L48.8922 62.6771C47.1252 60.9117 44.2612 60.9117 42.4957 62.6771L33.0368 72.1376V83.8761C33.0368 83.8761 43.8828 76.0148 55.9692 85.933C69.4305 96.9819 80.1819 83.957 80.1819 83.957V79.9684L71.7514 71.5379Z" fill="#FCA60D"/>
<path d="M46.9879 70.2666C42.4759 67.3949 44.2673 63.5192 45.2332 62.0009C45.3552 61.8071 45.4086 61.5844 45.3949 61.3677C44.339 61.4363 43.3029 61.8712 42.4957 62.6769L33.0368 72.1373V83.8759C33.0368 83.8759 36.9766 81.0225 42.7506 80.9233C43.1549 80.4274 43.5486 80.1467 43.5486 80.1467C46.1639 79.0908 52.7161 73.9119 46.9879 70.2666Z" fill="#F98A10"/>
<path d="M34.3826 95.3995H78.8361C79.5761 95.3995 80.1819 94.7937 80.1819 94.0521V83.1757C80.1819 83.1757 69.4305 96.199 55.9692 85.1517C43.8843 75.2335 33.0368 83.0933 33.0368 83.0933V94.0521C33.0368 94.7937 33.6426 95.3995 34.3826 95.3995Z" fill="#8181FC"/>
<path d="M45.636 87.7684C38.6551 83.6409 43.5471 80.1482 43.5486 80.1467C37.3413 79.9758 33.0368 83.0947 33.0368 83.0947V94.0535C33.0368 94.7936 33.6426 95.3994 34.3826 95.3994H46.6431C48.4192 93.5927 50.2319 90.486 45.636 87.7684Z" fill="#615DF9"/>
<path d="M176.286 162.085V117.377C176.286 116.029 175.194 114.937 173.846 114.937H87.8738C86.5265 114.937 85.434 116.029 85.434 117.377V179.474C85.434 180.821 86.5265 181.914 87.8738 181.914H155.991C163.698 176.344 170.543 169.655 176.286 162.085Z" fill="#11DFEF"/>
<path d="M101.862 179.474V117.377C101.862 116.029 102.953 114.938 104.3 114.938H87.8738C86.5265 114.938 85.434 116.029 85.434 117.377V179.474C85.434 180.821 86.5265 181.914 87.8738 181.914H104.3C102.953 181.914 101.862 180.821 101.862 179.474Z" fill="#0AC6E5"/>
<path d="M23.7137 117.377V162.085C29.4571 169.656 36.3022 176.344 44.0094 181.914H89.505V114.938H26.1536C24.8062 114.938 23.7137 116.029 23.7137 117.377Z" fill="#615DF9"/>
<path d="M40.1566 117.377C40.1566 116.029 41.2491 114.938 42.5964 114.938H26.1536C24.8062 114.938 23.7137 116.029 23.7137 117.377V162.085C28.4821 168.369 34.0088 174.042 40.1566 178.975V117.377Z" fill="#3342AE"/>
<path d="M161.33 148.753H104.401C102.782 148.753 101.471 147.441 101.471 145.824C101.471 144.205 102.782 142.894 104.401 142.894H161.33C162.949 142.894 164.259 144.205 164.259 145.824C164.259 147.441 162.949 148.753 161.33 148.753Z" fill="#E6F7FE"/>
<path d="M161.33 160.037H104.401C102.782 160.037 101.471 158.727 101.471 157.108C101.471 155.489 102.782 154.178 104.401 154.178H161.33C162.949 154.178 164.259 155.489 164.259 157.108C164.259 158.727 162.949 160.037 161.33 160.037Z" fill="#E6F7FE"/>
<path d="M132.864 171.323H104.399C102.782 171.323 101.469 170.01 101.469 168.393C101.469 166.774 102.782 165.463 104.399 165.463H132.864C134.483 165.463 135.794 166.774 135.794 168.393C135.794 170.01 134.483 171.323 132.864 171.323Z" fill="#E6F7FE"/>
<path d="M161.33 171.323H157.278C155.659 171.323 154.349 170.01 154.349 168.393C154.349 166.774 155.659 165.463 157.278 165.463H161.33C162.947 165.463 164.259 166.774 164.259 168.393C164.259 170.01 162.949 171.323 161.33 171.323Z" fill="#E6F7FE"/>
<path d="M174.664 12.4116H154.091C152.472 12.4116 151.161 11.1009 151.161 9.48193C151.161 7.8645 152.472 6.55225 154.091 6.55225H174.664C176.282 6.55225 177.594 7.8645 177.594 9.48193C177.594 11.1009 176.282 12.4116 174.664 12.4116Z" fill="#AEAEFF"/>
<path d="M139.372 12.4116H67.5568C65.9393 12.4116 64.6271 11.1009 64.6271 9.48193C64.6271 7.8645 65.9393 6.55225 67.5568 6.55225H139.372C140.99 6.55225 142.302 7.8645 142.302 9.48193C142.302 11.1009 140.991 12.4116 139.372 12.4116Z" fill="#AEAEFF"/>
<path d="M123.172 9.48193C123.172 7.8645 124.484 6.55225 126.102 6.55225H67.5568C65.9393 6.55225 64.6271 7.8645 64.6271 9.48193C64.6271 11.1009 65.9393 12.4116 67.5568 12.4116H126.102C124.484 12.4116 123.172 11.1009 123.172 9.48193Z" fill="#8181FC"/>
<path d="M134.232 134.625H105.766C103.609 134.625 101.86 132.877 101.86 130.719C101.86 128.561 103.609 126.813 105.766 126.813H134.232C136.389 126.813 138.138 128.561 138.138 130.719C138.138 132.877 136.389 134.625 134.232 134.625Z" fill="#8181FC"/>
<path d="M123.027 130.719C123.027 128.561 124.776 126.813 126.933 126.813H105.768C103.61 126.813 101.862 128.561 101.862 130.719C101.862 132.877 103.61 134.625 105.768 134.625H126.933C124.776 134.625 123.027 132.877 123.027 130.719Z" fill="#615DF9"/>
<path d="M78.8361 124.896H34.3826C33.6426 124.896 33.0368 125.502 33.0368 126.242V134.102C33.0368 134.102 43.8828 126.241 55.9692 136.159C56.2851 136.418 56.5964 136.659 56.9092 136.891C56.8726 137.151 56.8527 137.415 56.8527 137.685C56.8527 140.833 59.4131 143.394 62.561 143.394C64.6454 143.394 66.4719 142.27 67.4698 140.598C75.0626 140.382 80.1819 134.183 80.1819 134.183V126.242C80.1819 125.502 79.5761 124.896 78.8361 124.896Z" fill="#FCE395"/>
<path d="M34.3826 124.896C33.6426 124.896 33.0368 125.502 33.0368 126.242V134.102C33.0368 134.102 37.7991 130.652 44.5282 131.209C44.5435 131.19 44.5587 131.171 44.5724 131.154C44.8868 130.785 44.8929 130.258 44.6152 129.86C42.8299 127.293 45.1981 124.896 45.1981 124.896H34.3826Z" fill="#FECD0A"/>
<path d="M42.4957 140.1C44.2612 138.335 47.1252 138.335 48.8922 140.1L60.5911 151.801C61.29 152.499 62.4237 152.499 63.1226 151.801L65.9622 148.961C67.5613 147.362 70.1538 147.362 71.7514 148.961L80.1819 157.391V133.401C80.1819 133.401 75.0626 139.601 67.4698 139.816C66.4734 141.489 64.6469 142.613 62.5626 142.613C59.4147 142.613 56.8527 140.051 56.8527 136.903C56.8527 136.633 56.8726 136.369 56.9092 136.11C56.5979 135.878 56.2851 135.637 55.9692 135.377C43.8843 125.459 33.0368 133.321 33.0368 133.321V149.559L42.4957 140.1Z" fill="#FECD0A"/>
<path d="M45.1263 138.815C45.1614 138.756 45.1981 138.696 45.2332 138.643C45.4773 138.258 45.4483 137.755 45.1492 137.411C42.5369 134.399 43.7103 132.169 44.5725 131.154C44.7449 130.951 44.8212 130.702 44.812 130.45C37.9334 129.771 33.0368 133.319 33.0368 133.319V149.559L42.4957 140.1C43.2343 139.363 44.165 138.937 45.1263 138.815Z" fill="#FCA60D"/>
<path d="M68.5135 136.903C68.5135 140.19 65.8493 142.856 62.561 142.856C59.2743 142.856 56.6101 140.19 56.6101 136.903C56.6101 133.615 59.2743 130.951 62.561 130.951C65.8493 130.951 68.5135 133.615 68.5135 136.903Z" fill="#FCA60D"/>
<path d="M61.7371 131.013C58.8409 131.416 56.6101 133.896 56.6101 136.903C56.6101 140.19 59.2743 142.856 62.561 142.856C64.6988 142.856 66.568 141.725 67.6178 140.033C62.5748 140.732 59.111 135.248 61.7371 131.013Z" fill="#F98A10"/>
<path d="M71.7514 148.18C70.1523 146.581 67.5598 146.581 65.9622 148.18L63.1226 151.019C62.4237 151.718 61.29 151.718 60.5911 151.019L48.8922 139.319C47.1252 137.554 44.2612 137.554 42.4957 139.319L33.0368 148.778V160.518C33.0368 160.518 43.8828 152.657 55.9692 162.575C69.4305 173.624 80.1819 160.599 80.1819 160.599V156.61L71.7514 148.18Z" fill="#FCA60D"/>
<path d="M46.9879 146.909C42.4759 144.037 44.2673 140.161 45.2332 138.643C45.3552 138.449 45.4086 138.226 45.3949 138.01C44.339 138.078 43.3029 138.513 42.4957 139.319L33.0368 148.778V160.516C33.0368 160.516 36.9766 157.665 42.7521 157.565C43.1564 157.07 43.5486 156.789 43.5486 156.789C46.1639 155.733 52.7161 150.554 46.9879 146.909Z" fill="#F98A10"/>
<path d="M34.3826 172.041H78.8361C79.5761 172.041 80.1819 171.434 80.1819 170.694V159.818C80.1819 159.818 69.4305 172.841 55.9692 161.794C43.8843 151.875 33.0368 159.735 33.0368 159.735V170.694C33.0368 171.434 33.6426 172.041 34.3826 172.041Z" fill="#8181FC"/>
<path d="M45.636 164.41C38.6551 160.283 43.5471 156.79 43.5471 156.79C37.3413 156.618 33.0368 159.737 33.0368 159.737V170.695C33.0368 171.435 33.6426 172.041 34.3826 172.041H46.6431C48.4192 170.233 50.2319 167.128 45.636 164.41Z" fill="#615DF9"/>
</svg>
